<?xml version="1.0" encoding="UTF-8"?>
<svg width="22px" height="10px" viewBox="0 0 22 10" version="1.1" xmlns="http://www.w3.org/2000/svg" xmlns:xlink="http://www.w3.org/1999/xlink">
    <!-- Generator: Sketch 56 (81588) - https://sketch.com -->
    <title>adp</title>
    <desc>Created with Sketch.</desc>
    <g id="Page-1" stroke="none" stroke-width="1" fill="none" fill-rule="evenodd">
        <g id="adp" transform="translate(-1.000000, -7.000000)" >
            <polygon id="Path" points="0 0 24 0 24 24 0 24"></polygon>
            <path d="M23,10.9296123 C23,11.4706656 22.8958517,11.978977 22.687805,12.4545414 C22.486097,12.9369474 22.2063403,13.3555662 21.8487795,13.710653 C21.490974,14.0659799 21.0746357,14.344572 20.5999994,14.5464291 C20.1251232,14.7551279 19.6178038,14.8592345 19.078046,14.8592345 L19.078046,17 L15.6829225,17 L15.6829225,15.3284427 C15.45512,15.5891974 15.2014578,15.8206233 14.9219458,16.0224805 C14.6487726,16.2311792 14.3543852,16.4071311 14.0390182,16.5503409 C13.7234065,16.6935457 13.390237,16.8044941 13.0390201,16.8826955 C12.6878031,16.9608968 12.3268258,17 11.9560929,17 L8.73658277,17 L8.73658277,14.8592395 L6.20975602,14.8592395 L4.96097585,17 L1,17 L6.82439063,7 L11.9560979,7 C12.3268307,7 12.6878031,7.03909818 13.0390251,7.11730455 C13.390247,7.19551092 13.7234165,7.30645425 14.0390232,7.44965909 C14.3543902,7.59310917 14.6487776,7.76906099 14.9219508,7.97751955 C15.2014628,8.18621834 15.45512,8.4174041 15.6829274,8.67155728 L15.6829274,7 L19.078051,7 C19.6178088,7 20.1251232,7.1011788 20.6000044,7.30303591 C21.0746407,7.51173471 21.490979,7.79350486 21.8487845,8.14858659 C22.2063453,8.50391357 22.486102,8.92253736 22.68781,9.40469819 C22.8958517,9.8804928 23,10.3887992 23,10.9296123 Z M11.9561029,15.7585427 C12.3331745,15.7585427 12.69098,15.7064919 13.0292746,15.60214 C13.3739079,15.4914369 13.6926866,15.3416306 13.9853707,15.1524809 C14.2780548,14.9635764 14.5414674,14.7387469 14.7756137,14.4779923 C15.0031764,14.2174829 15.1917123,13.9274046 15.341466,13.6080027 L16.9317076,13.6080027 L16.9317076,15.7585427 L17.8292709,15.7585427 L17.8292709,13.6080027 L19.078051,13.6080027 C19.4487839,13.6080027 19.7934172,13.5363978 20.1121959,13.3929477 C20.4373183,13.2560941 20.7219502,13.0654779 20.965852,12.8210993 C21.2097537,12.5767207 21.3999979,12.2949505 21.5365845,11.9755486 C21.6795099,11.6497905 21.7512198,11.30106 21.7512198,10.9296073 C21.7512198,10.5581545 21.6795149,10.2096642 21.5365845,9.8836659 C21.3999979,9.5579078 21.2097537,9.27442598 20.965852,9.03322544 C20.7219502,8.79226515 20.4373133,8.59994234 20.1121959,8.45649226 C19.7934172,8.31963863 19.4487839,8.25121181 19.078051,8.25121181 L16.9317076,8.25121181 L16.9317076,11.4672423 L15.6634165,11.4672423 C15.5982951,11.011232 15.4585366,10.5874782 15.2439063,10.1964714 C15.0226874,9.80546454 14.7478109,9.46504211 14.4195166,9.17496385 C14.0909825,8.88513083 13.7185413,8.65858961 13.3024428,8.49559044 C12.8795159,8.33283151 12.4307343,8.25121181 11.9561029,8.25121181 L7.56586135,8.25121181 L3.20488623,15.7585427 L4.24878653,15.7585427 L5.48781122,13.6080027 L9.98537292,13.6080027 L9.98537292,15.7585427 L11.9561029,15.7585427 Z M8.73658776,9.14075545 L8.73658776,11.4672473 L6.74634686,11.4672473 L6.01464161,12.7184691 L9.98537292,12.7184691 L9.98537292,9.14075545 L8.73658776,9.14075545 Z M14.5902448,13.1094759 C14.4404911,13.4613795 14.2373195,13.7661221 13.9804904,14.0234534 C13.7234165,14.2810299 13.4195134,14.4845987 13.0682965,14.6344 C12.7234184,14.7844465 12.3561022,14.8592295 11.9658584,14.8592295 L10.8731757,14.8592295 L10.8731757,13.6080077 L11.9658584,13.6080077 C12.4080514,13.6080077 12.7853678,13.451605 13.0975629,13.1387995 C13.4097579,12.8259941 13.5658554,12.4447618 13.5658554,11.9951027 C13.5658554,11.5520451 13.4097579,11.1739909 13.0975629,10.8611854 C12.7853678,10.54838 12.4080514,10.3919773 11.9658584,10.3919773 L10.8731757,10.3919773 L10.8731757,9.14075545 L11.9658584,9.14075545 C12.3561022,9.14075545 12.7234184,9.21577871 13.0682965,9.36558499 C13.4195134,9.51563151 13.7234165,9.7192003 13.9804904,9.97653158 C14.2373195,10.2341081 14.4404911,10.5386054 14.5902448,10.8905091 C14.7397588,11.2360615 14.8146356,11.6040959 14.8146356,11.9951027 C14.8146356,12.392711 14.7397588,12.7641637 14.5902448,13.1094759 Z M17.8292709,9.14075545 L17.8292709,10.3919773 L19.078051,10.3919773 C19.227565,10.3919773 19.3526828,10.4442733 19.4536591,10.54838 C19.5543907,10.6527319 19.6048764,10.779806 19.6048764,10.9296123 C19.6048764,11.0796588 19.5543907,11.2067379 19.4536591,11.3108445 C19.3526828,11.4151964 19.22756,11.4672473 19.078051,11.4672473 L17.8292709,11.4672473 L17.8292709,12.7184691 L19.078051,12.7184691 C19.5658545,12.7184691 19.9836614,12.5442289 20.3317114,12.1954984 C20.6795167,11.8470131 20.8536616,11.424971 20.8536616,10.9296123 C20.8536616,10.4344988 20.6795167,10.0124567 20.3317114,9.66372613 C19.9836614,9.31524083 19.5658595,9.14075545 19.078051,9.14075545 L17.8292709,9.14075545 L17.8292709,9.14075545 Z M20.385369,16.99999 C20.515367,16.99999 20.6275624,16.9542904 20.7219552,16.8631364 C20.8161033,16.7717371 20.8634171,16.6578559 20.8634171,16.5210073 C20.8634171,16.3907551 20.8160983,16.280047 20.7219552,16.1886527 C20.6275674,16.0974987 20.515372,16.0517991 20.385369,16.0517991 C20.2551262,16.0517991 20.1429308,16.0974987 20.0487828,16.1886527 C19.954395,16.280052 19.907321,16.3907551 19.907321,16.5210073 C19.907321,16.6578609 19.954395,16.7717421 20.0487828,16.8631364 C20.1429258,16.9542904 20.2551212,16.99999 20.385369,16.99999 Z M20.385369,16.9217886 C20.2746372,16.9217886 20.1819527,16.8826904 20.1073206,16.8044841 C20.0324438,16.7262827 19.9951252,16.6317104 19.9951252,16.5210023 C19.9951252,16.4168956 20.0324438,16.3255014 20.1073206,16.247295 C20.1819527,16.1690936 20.2746372,16.1299904 20.385369,16.1299904 C20.4958561,16.1299904 20.5885406,16.1690886 20.6634174,16.247295 C20.7380495,16.3254963 20.7756128,16.4168956 20.7756128,16.5210023 C20.7756128,16.6317054 20.7380495,16.7262827 20.6634174,16.8044841 C20.5885356,16.8826904 20.4958561,16.9217886 20.385369,16.9217886 Z M20.40488,16.5601104 C20.4178073,16.5601104 20.4307347,16.5664667 20.4439018,16.5796595 C20.4502456,16.5926122 20.4551209,16.6089832 20.4585375,16.6285373 C20.4617094,16.6480864 20.4665847,16.6708135 20.4731733,16.6969641 C20.4731733,16.7165132 20.4746368,16.7343556 20.4780535,16.7507266 C20.4812254,16.7668573 20.4861006,16.7815167 20.4926892,16.7947145 L20.6000044,16.7947145 C20.5934208,16.768564 20.5868322,16.7424185 20.5804934,16.7165132 C20.5739098,16.6903626 20.5707379,16.6642171 20.5707379,16.6383118 C20.5641544,16.6055648 20.5561022,16.581126 20.5463468,16.5650002 C20.5365913,16.5488745 20.5122001,16.5373833 20.4731782,16.5307868 L20.4731782,16.5210123 C20.5122001,16.5146561 20.5414715,16.4999967 20.5609825,16.4770243 C20.5804934,16.4542971 20.5902489,16.4266802 20.5902489,16.3939332 C20.5902489,16.3289297 20.5673213,16.2864082 20.5219556,16.2668541 C20.4763452,16.247305 20.4307347,16.2375304 20.385369,16.2375304 L20.2000051,16.2375304 L20.2000051,16.7947145 L20.2878093,16.7947145 L20.2878093,16.5601104 L20.3561026,16.5601104 C20.3756086,16.5601104 20.3917078,16.5601104 20.40488,16.5601104 Z M20.2878043,16.3255064 L20.385364,16.3255064 C20.4243859,16.3255064 20.4502407,16.3303961 20.4634128,16.3401707 C20.4763402,16.3499452 20.4829237,16.3680279 20.4829237,16.3939332 C20.4829237,16.4134823 20.4763402,16.4315699 20.4634128,16.4476957 C20.4502407,16.4640667 20.4209742,16.4721345 20.3756086,16.4721345 L20.2878043,16.4721345 L20.2878043,16.3255064 L20.2878043,16.3255064 Z" id="Shape" fill="currentColor" fill-rule="nonzero"></path>
        </g>
    </g>
</svg>
