<?xml version="1.0" encoding="UTF-8"?>
<svg width="22px" height="22px" viewBox="0 0 22 22" version="1.1" xmlns="http://www.w3.org/2000/svg" xmlns:xlink="http://www.w3.org/1999/xlink">
    <!-- Generator: Sketch 48.1 (47250) - http://www.bohemiancoding.com/sketch -->
    <title>Group</title>
    <desc>Created with Sketch.</desc>
    <defs></defs>
    <g id="02-Full-Page-Modals-(Stacked)" stroke="none" stroke-width="1" fill="none" fill-rule="evenodd" transform="translate(-1480.000000, -247.000000)">
        <g id="Group" transform="translate(1475.000000, 242.000000)">
            <rect id="Rectangle-2" x="0" y="0" width="32" height="32"></rect>
            <path d="M27,22.7037037 C27,23.1975333 26.8271622,23.6172822 26.4814815,23.962963 L23.962963,26.4814815 C23.6172822,26.8271622 23.1975333,27 22.7037037,27 C22.2098741,27 21.7901252,26.8271622 21.4444444,26.4814815 L16,21.037037 L10.5555556,26.4814815 C10.2098748,26.8271622 9.79012593,27 9.2962963,27 C8.80246667,27 8.38271778,26.8271622 8.03703704,26.4814815 L5.51851852,23.962963 C5.17283778,23.6172822 5,23.1975333 5,22.7037037 C5,22.2098741 5.17283778,21.7901252 5.51851852,21.4444444 L10.962963,16 L5.51851852,10.5555556 C5.17283778,10.2098748 5,9.79012593 5,9.2962963 C5,8.80246667 5.17283778,8.38271778 5.51851852,8.03703704 L8.03703704,5.51851852 C8.38271778,5.17283778 8.80246667,5 9.2962963,5 C9.79012593,5 10.2098748,5.17283778 10.5555556,5.51851852 L16,10.962963 L21.4444444,5.51851852 C21.7901252,5.17283778 22.2098741,5 22.7037037,5 C23.1975333,5 23.6172822,5.17283778 23.962963,5.51851852 L26.4814815,8.03703704 C26.8271622,8.38271778 27,8.80246667 27,9.2962963 C27,9.79012593 26.8271622,10.2098748 26.4814815,10.5555556 L21.037037,16 L26.4814815,21.4444444 C26.8271622,21.7901252 27,22.2098741 27,22.7037037 Z" id="ï€-copy" fill="#FFFFFF"></path>
        </g>
    </g>
</svg>