<?xml version="1.0" encoding="UTF-8"?>
<svg width="32px" height="32px" viewBox="0 0 32 32" version="1.1" xmlns="http://www.w3.org/2000/svg" xmlns:xlink="http://www.w3.org/1999/xlink">
    <!-- Generator: Sketch 49.2 (51160) - http://www.bohemiancoding.com/sketch -->
    <title>Artboard</title>
    <desc>Created with Sketch.</desc>
    <defs></defs>
    <g id="Artboard" stroke="none" stroke-width="1" fill="none" fill-rule="evenodd">
        <path d="M14.3065333,17.4877579 L10.0406168,18.4110474 C9.91795858,18.4377262 9.7967455,18.4465144 9.65401335,18.4465144 C9.27251991,18.4465144 8.91429967,18.3359255 8.61736243,18.1172956 C8.11937723,17.756247 7.89959375,17.1825974 8.05281178,16.545844 L10.9813115,6.09184091 C11.1634622,5.5371776 12.0067807,5 12.569638,5 L17.3274733,5 C17.7389138,5 18.1217203,5.13009774 18.4332962,5.39074964 C18.7778642,5.67900142 18.9802251,6.07851892 18.9802251,6.53004808 C18.9802251,6.7672005 18.9172513,6.9864107 18.8092036,7.19269673 L17.1008123,11.2171106 L20.9589199,10.3864286 C21.1003386,10.3556692 21.2198379,10.3383413 21.3455233,10.3383413 C21.7735946,10.3383413 22.1702465,10.4905896 22.4950886,10.7732095 L22.5337449,10.8086648 C23.0211344,11.2798201 23.1428776,11.9455988 22.8214623,12.5556584 L14.9655992,27.1975296 C14.6514379,27.7231592 14.1168624,28 13.4979961,28 C13.3854932,28 13.273938,27.9861349 13.0470164,27.9435449 C12.6602157,27.8445669 12.3309944,27.6311485 12.1049647,27.307253 C11.8515591,26.9441282 11.7761216,26.5065793 11.896845,26.0865292 L14.3065333,17.4877579 Z" id="bolt---FontAwesome-Copy" stroke="#76767A" stroke-width="2"></path>
    </g>
</svg>