<?xml version="1.0" encoding="UTF-8"?>
<svg width="32px" height="32px" viewBox="0 0 32 32" version="1.1" xmlns="http://www.w3.org/2000/svg" xmlns:xlink="http://www.w3.org/1999/xlink">
    <!-- Generator: Sketch 50 (54983) - http://www.bohemiancoding.com/sketch -->
    <title>icn-actions-2</title>
    <desc>Created with Sketch.</desc>
    <defs></defs>
    <g id="icn-actions-2" stroke="none" stroke-width="1" fill="none" fill-rule="evenodd">
        <path d="M14,18 L9.59781065,18.7336982 C9.05304033,18.8244933 8.53781279,18.4564736 8.44701774,17.9117033 C8.42143988,17.7582361 8.43202395,17.6009177 8.47792819,17.4522597 L11.7965984,6.70495536 C11.9260151,6.28584764 12.3134477,6 12.7520819,6 L18.6125741,6 C19.1648589,6 19.6125741,6.44771525 19.6125741,7 C19.6125741,7.1074821 19.5952462,7.2142613 19.5612574,7.31622777 L18,12 L21.8639714,11.3560048 C22.4087417,11.2652097 22.9239693,11.6332294 23.0147643,12.1779997 C23.0538353,12.4124255 23.0081381,12.6531032 22.8858633,12.8568944 L15.5826051,25.0289915 C15.2211586,25.6314023 14.5701449,26 13.8676192,26 L13.4978638,26 C12.8504617,26 12.3256387,25.475177 12.3256387,24.8277749 C12.3256387,24.7317346 12.3374414,24.6360582 12.3607814,24.5428971 L14,18 Z" id="Path-5" stroke="#76767A" stroke-width="2"></path>
    </g>
</svg>