<svg style="display: none;"><defs><path id="baseline-zoom_out_map-24px-a" d="M0 0h24v24H0z"/></defs><symbol viewBox="0 0 24 24" id="icon-accessible"><title>accessible</title><path fill="none" d="M0 0h24v24H0V0z"/><circle cx="12" cy="4" r="2"/><path d="M19 11.9c0-.49-.36-.89-.84-.97-1.25-.21-2.43-.88-3.23-1.76l-1.29-1.43c-.17-.19-.38-.34-.61-.45-.01 0-.01-.01-.02-.01H13c-.37-.21-.78-.31-1.25-.25C10.73 7.15 10 8.07 10 9.1V15c0 1.1.9 2 2 2h5v4c0 .55.45 1 1 1s1-.45 1-1v-4.5c0-1.1-.9-2-2-2h-3v-3.45c1 .83 2.4 1.54 3.8 1.82.62.13 1.2-.34 1.2-.97zM12.83 18c-.41 1.16-1.52 2-2.83 2-1.66 0-3-1.34-3-3 0-1.31.84-2.41 2-2.83V12.1c-2.28.46-4 2.48-4 4.9 0 2.76 2.24 5 5 5 2.42 0 4.44-1.72 4.9-4h-2.07z"/></symbol><symbol viewBox="0 0 24 24" id="icon-account-circle"><title>account-circle</title><path d="M12 2C6.48 2 2 6.48 2 12s4.48 10 10 10 10-4.48 10-10S17.52 2 12 2zm0 3c1.66 0 3 1.34 3 3s-1.34 3-3 3-3-1.34-3-3 1.34-3 3-3zm0 14.2c-2.5 0-4.71-1.28-6-3.22.03-1.99 4-3.08 6-3.08 1.99 0 5.97 1.09 6 3.08-1.29 1.94-3.5 3.22-6 3.22z"/><path d="M0 0h24v24H0z" fill="none"/></symbol><symbol viewBox="0 0 24 24" id="icon-account-group"><title>account-group</title><path d="M12,6A3,3 0 0,0 9,9A3,3 0 0,0 12,12A3,3 0 0,0 15,9A3,3 0 0,0 12,6M6,8.17A2.5,2.5 0 0,0 3.5,10.67A2.5,2.5 0 0,0 6,13.17C6.88,13.17 7.65,12.71 8.09,12.03C7.42,11.18 7,10.15 7,9C7,8.8 7,8.6 7.04,8.4C6.72,8.25 6.37,8.17 6,8.17M18,8.17C17.63,8.17 17.28,8.25 16.96,8.4C17,8.6 17,8.8 17,9C17,10.15 16.58,11.18 15.91,12.03C16.35,12.71 17.12,13.17 18,13.17A2.5,2.5 0 0,0 20.5,10.67A2.5,2.5 0 0,0 18,8.17M12,14C10,14 6,15 6,17V19H18V17C18,15 14,14 12,14M4.67,14.97C3,15.26 1,16.04 1,17.33V19H4V17C4,16.22 4.29,15.53 4.67,14.97M19.33,14.97C19.71,15.53 20,16.22 20,17V19H23V17.33C23,16.04 21,15.26 19.33,14.97Z"/></symbol><symbol viewBox="0 0 24 24" id="icon-account"><title>account</title><path d="M12,4A4,4 0 0,1 16,8A4,4 0 0,1 12,12A4,4 0 0,1 8,8A4,4 0 0,1 12,4M12,14C16.42,14 20,15.79 20,18V20H4V18C4,15.79 7.58,14 12,14Z"/></symbol><symbol viewBox="0 0 24 24" id="icon-add-box"><title>add-box</title><path d="M19 3H5c-1.11 0-2 .9-2 2v14c0 1.1.89 2 2 2h14c1.1 0 2-.9 2-2V5c0-1.1-.9-2-2-2zm-2 10h-4v4h-2v-4H7v-2h4V7h2v4h4v2z"/><path d="M0 0h24v24H0z" fill="none"/></symbol><symbol viewBox="0 0 24 24" id="icon-add-user"><title>add-user</title><path d="M15,14C12.33,14 7,15.33 7,18V20H23V18C23,15.33 17.67,14 15,14M6,10V7H4V10H1V12H4V15H6V12H9V10M15,12A4,4 0 0,0 19,8A4,4 0 0,0 15,4A4,4 0 0,0 11,8A4,4 0 0,0 15,12Z"/></symbol><symbol viewBox="0 0 24 24" id="icon-adjust"><title>adjust</title><path d="M0 0h24v24H0z" fill="none"/><path d="M12 2C6.48 2 2 6.48 2 12s4.48 10 10 10 10-4.48 10-10S17.52 2 12 2zm-1 17.93c-3.94-.49-7-3.85-7-7.93s3.05-7.44 7-7.93v15.86zm2-15.86c1.03.13 2 .45 2.87.93H13v-.93zM13 7h5.24c.25.31.48.65.68 1H13V7zm0 3h6.74c.08.33.15.66.19 1H13v-1zm0 9.93V19h2.87c-.87.48-1.84.8-2.87.93zM18.24 17H13v-1h5.92c-.2.35-.43.69-.68 1zm1.5-3H13v-1h6.93c-.04.34-.11.67-.19 1z"/></symbol><symbol viewBox="0 0 24 24" id="icon-alert-circle"><title>alert-circle</title><path d="M13,13H11V7H13M13,17H11V15H13M12,2A10,10 0 0,0 2,12A10,10 0 0,0 12,22A10,10 0 0,0 22,12A10,10 0 0,0 12,2Z"/></symbol><symbol viewBox="0 0 24 24" id="icon-alert"><title>alert</title><path d="M4.47 21h15.06c1.54 0 2.5-1.67 1.73-3L13.73 4.99c-.77-1.33-2.69-1.33-3.46 0L2.74 18c-.77 1.33.19 3 1.73 3zM12 14c-.55 0-1-.45-1-1v-2c0-.55.45-1 1-1s1 .45 1 1v2c0 .55-.45 1-1 1zm1 4h-2v-2h2v2z"/></symbol><symbol viewBox="0 0 24 24" id="icon-archive"><title>archive</title><path d="M20.54 5.23l-1.39-1.68C18.88 3.21 18.47 3 18 3H6c-.47 0-.88.21-1.16.55L3.46 5.23C3.17 5.57 3 6.02 3 6.5V19c0 1.1.9 2 2 2h14c1.1 0 2-.9 2-2V6.5c0-.48-.17-.93-.46-1.27zM12 17.5L6.5 12H10v-2h4v2h3.5L12 17.5zM5.12 5l.81-1h12l.94 1H5.12z"/><path d="M0 0h24v24H0z" fill="none"/></symbol><symbol viewBox="0 0 24 24" id="icon-arrow-back"><title>arrow-back</title><path d="M0 0h24v24H0z" fill="none"/><path d="M20 11H7.83l5.59-5.59L12 4l-8 8 8 8 1.41-1.41L7.83 13H20v-2z"/></symbol><symbol viewBox="0 0 24 24" id="icon-arrow-down"><title>arrow-down</title><path d="M7 10l5 5 5-5z"/><path d="M0 0h24v24H0z" fill="none"/></symbol><symbol viewBox="0 0 24 24" id="icon-arrow-downward"><title>arrow-downward</title><path fill="none" d="M0 0h24v24H0V0z"/><path fill="#010101" d="M20 12l-1.41-1.41L13 16.17V4h-2v12.17l-5.58-5.59L4 12l8 8 8-8z"/></symbol><symbol viewBox="0 0 24 24" id="icon-arrow-forward"><title>arrow-forward</title><path d="M0 0h24v24H0z" fill="none"/><path d="M12 4l-1.41 1.41L16.17 11H4v2h12.17l-5.58 5.59L12 20l8-8z"/></symbol><symbol viewBox="0 0 24 24" id="icon-arrow-left"><title>arrow-left</title><path d="M14 7l-5 5 5 5V7z"/><path fill="none" d="M24 0v24H0V0h24z"/></symbol><symbol viewBox="0 0 24 24" id="icon-arrow-right"><title>arrow-right</title><path d="M10 17l5-5-5-5v10z"/><path fill="none" d="M0 24V0h24v24H0z"/></symbol><symbol viewBox="0 0 24 24" id="icon-arrow-up"><title>arrow-up</title><path d="M7 14l5-5 5 5z"/><path d="M0 0h24v24H0z" fill="none"/></symbol><symbol viewBox="0 0 24 24" id="icon-arrow-upward"><title>arrow-upward</title><path fill="none" d="M0 0h24v24H0V0z"/><path d="M4 12l1.41 1.41L11 7.83V20h2V7.83l5.58 5.59L20 12l-8-8-8 8z"/></symbol><symbol viewBox="0 0 24 24" id="icon-asterisk"><title>asterisk</title><path fill="currentColor" d="M10,2H14L13.21,9.91L19.66,5.27L21.66,8.73L14.42,12L21.66,15.27L19.66,18.73L13.21,14.09L14,22H10L10.79,14.09L4.34,18.73L2.34,15.27L9.58,12L2.34,8.73L4.34,5.27L10.79,9.91L10,2Z"/></symbol><symbol viewBox="0 0 24 24" id="icon-ban"><title>ban</title><path d="M12,2A10,10 0 0,1 22,12A10,10 0 0,1 12,22A10,10 0 0,1 2,12A10,10 0 0,1 12,2M12,4A8,8 0 0,0 4,12C4,13.85 4.63,15.55 5.68,16.91L16.91,5.68C15.55,4.63 13.85,4 12,4M12,20A8,8 0 0,0 20,12C20,10.15 19.37,8.45 18.32,7.09L7.09,18.32C8.45,19.37 10.15,20 12,20Z"/></symbol><symbol viewBox="0 0 24 24" id="icon-bar-chart"><title>bar-chart</title><path d="M9 17H7v-7h2v7zm4 0h-2V7h2v10zm4 0h-2v-4h2v4zm2.5 2.1h-15V5h15v14.1zm0-16.1h-15c-1.1 0-2 .9-2 2v14c0 1.1.9 2 2 2h15c1.1 0 2-.9 2-2V5c0-1.1-.9-2-2-2z"/><path fill="none" d="M0 0h24v24H0z"/></symbol><symbol viewBox="0 0 24 24" id="icon-baseline-zoom_out_map-24px"><title>baseline-zoom_out_map-24px</title><clipPath id="baseline-zoom_out_map-24px-b"><use xlink:href="#baseline-zoom_out_map-24px-a" overflow="visible"/></clipPath><path clip-path="url(#baseline-zoom_out_map-24px-b)" d="M15 3l2.3 2.3-2.89 2.87 1.42 1.42L18.7 6.7 21 9V3zM3 9l2.3-2.3 2.87 2.89 1.42-1.42L6.7 5.3 9 3H3zm6 12l-2.3-2.3 2.89-2.87-1.42-1.42L5.3 17.3 3 15v6zm12-6l-2.3 2.3-2.87-2.89-1.42 1.42 2.89 2.87L15 21h6z"/><path clip-path="url(#baseline-zoom_out_map-24px-b)" fill="none" d="M0 0h24v24H0z"/></symbol><symbol viewBox="0 0 24 24" id="icon-bell"><title>bell</title><path d="M21,19V20H3V19L5,17V11C5,7.9 7.03,5.17 10,4.29C10,4.19 10,4.1 10,4A2,2 0 0,1 12,2A2,2 0 0,1 14,4C14,4.1 14,4.19 14,4.29C16.97,5.17 19,7.9 19,11V17L21,19M14,21A2,2 0 0,1 12,23A2,2 0 0,1 10,21"/></symbol><symbol viewBox="0 0 24 24" id="icon-birthday-cake"><title>birthday-cake</title><path d="M12,6C13.11,6 14,5.1 14,4C14,3.62 13.9,3.27 13.71,2.97L12,0L10.29,2.97C10.1,3.27 10,3.62 10,4A2,2 0 0,0 12,6M16.6,16L15.53,14.92L14.45,16C13.15,17.29 10.87,17.3 9.56,16L8.5,14.92L7.4,16C6.75,16.64 5.88,17 4.96,17C4.23,17 3.56,16.77 3,16.39V21A1,1 0 0,0 4,22H20A1,1 0 0,0 21,21V16.39C20.44,16.77 19.77,17 19.04,17C18.12,17 17.25,16.64 16.6,16M18,9H13V7H11V9H6A3,3 0 0,0 3,12V13.54C3,14.62 3.88,15.5 4.96,15.5C5.5,15.5 6,15.3 6.34,14.93L8.5,12.8L10.61,14.93C11.35,15.67 12.64,15.67 13.38,14.93L15.5,12.8L17.65,14.93C18,15.3 18.5,15.5 19.03,15.5C20.11,15.5 21,14.62 21,13.54V12A3,3 0 0,0 18,9Z"/></symbol><symbol viewBox="0 0 24 24" id="icon-book"><title>book</title><path d="M0 0h24v24H0z" fill="none"/><path d="M18 2H6c-1.1 0-2 .9-2 2v16c0 1.1.9 2 2 2h12c1.1 0 2-.9 2-2V4c0-1.1-.9-2-2-2zM6 4h5v8l-2.5-1.5L6 12V4z"/></symbol><symbol viewBox="0 0 24 24" id="icon-building"><title>building</title><path d="M18,15H16V17H18M18,11H16V13H18M20,19H12V17H14V15H12V13H14V11H12V9H20M10,7H8V5H10M10,11H8V9H10M10,15H8V13H10M10,19H8V17H10M6,7H4V5H6M6,11H4V9H6M6,15H4V13H6M6,19H4V17H6M12,7V3H2V21H22V7H12Z"/></symbol><symbol viewBox="0 0 24 24" id="icon-calendar"><title>calendar</title><path d="M19,19H5V8H19M16,1V3H8V1H6V3H5C3.89,3 3,3.89 3,5V19A2,2 0 0,0 5,21H19A2,2 0 0,0 21,19V5C21,3.89 20.1,3 19,3H18V1M17,12H12V17H17V12Z"/></symbol><symbol viewBox="0 0 24 24" id="icon-caret-down"><title>caret-down</title><path d="M7 10l5 5 5-5z"/><path d="M0 0h24v24H0z" fill="none"/></symbol><symbol viewBox="0 0 24 24" id="icon-caret-left"><title>caret-left</title><path d="M14 7l-5 5 5 5V7z"/><path fill="none" d="M24 0v24H0V0h24z"/></symbol><symbol viewBox="0 0 24 24" id="icon-caret-right"><title>caret-right</title><path d="M10 17l5-5-5-5v10z"/><path fill="none" d="M0 24V0h24v24H0z"/></symbol><symbol viewBox="0 0 24 24" id="icon-chart-bar"><title>chart-bar</title><path d="M22,21H2V3H4V19H6V10H10V19H12V6H16V19H18V14H22V21Z"/></symbol><symbol viewBox="0 0 24 24" id="icon-check_circle"><title>check_circle</title><path fill="none" d="M0 0h24v24H0V0z"/><path d="M12 2C6.48 2 2 6.48 2 12s4.48 10 10 10 10-4.48 10-10S17.52 2 12 2zM9.29 16.29L5.7 12.7c-.39-.39-.39-1.02 0-1.41.39-.39 1.02-.39 1.41 0L10 14.17l6.88-6.88c.39-.39 1.02-.39 1.41 0 .39.39.39 1.02 0 1.41l-7.59 7.59c-.38.39-1.02.39-1.41 0z"/></symbol><symbol viewBox="0 0 24 24" id="icon-check"><title>check</title><path d="M0 0h24v24H0z" fill="none"/><path d="M9 16.17L4.83 12l-1.42 1.41L9 19 21 7l-1.41-1.41z"/></symbol><symbol viewBox="0 0 24 24" id="icon-checkbox-marked"><title>checkbox-marked</title><path d="M10,17L5,12L6.41,10.58L10,14.17L17.59,6.58L19,8M19,3H5C3.89,3 3,3.89 3,5V19A2,2 0 0,0 5,21H19A2,2 0 0,0 21,19V5C21,3.89 20.1,3 19,3Z"/></symbol><symbol viewBox="0 0 24 24" id="icon-chevron-down"><title>chevron-down</title><path d="M16.59 8.59L12 13.17 7.41 8.59 6 10l6 6 6-6z"/><path d="M0 0h24v24H0z" fill="none"/></symbol><symbol viewBox="0 0 24 24" id="icon-chevron-left"><title>chevron-left</title><path d="M15.41 7.41L14 6l-6 6 6 6 1.41-1.41L10.83 12z"/><path d="M0 0h24v24H0z" fill="none"/></symbol><symbol viewBox="0 0 24 24" id="icon-chevron-right"><title>chevron-right</title><path d="M10 6L8.59 7.41 13.17 12l-4.58 4.59L10 18l6-6z"/><path d="M0 0h24v24H0z" fill="none"/></symbol><symbol viewBox="0 0 24 24" id="icon-chevron-up"><title>chevron-up</title><path d="M12 8l-6 6 1.41 1.41L12 10.83l4.59 4.58L18 14z"/><path d="M0 0h24v24H0z" fill="none"/></symbol><symbol viewBox="0 0 24 24" id="icon-circle"><title>circle</title><path d="M12,2A10,10 0 0,0 2,12A10,10 0 0,0 12,22A10,10 0 0,0 22,12A10,10 0 0,0 12,2Z"/></symbol><symbol viewBox="0 0 24 24" id="icon-clock"><title>clock</title><path d="M11.99 2C6.47 2 2 6.48 2 12s4.47 10 9.99 10C17.52 22 22 17.52 22 12S17.52 2 11.99 2zM12 20c-4.42 0-8-3.58-8-8s3.58-8 8-8 8 3.58 8 8-3.58 8-8 8z"/><path d="M0 0h24v24H0z" fill="none"/><path d="M12.5 7H11v6l5.25 3.15.75-1.23-4.5-2.67z"/></symbol><symbol viewBox="0 0 24 24" id="icon-close-circle"><title>close-circle</title><path d="M12,2C17.53,2 22,6.47 22,12C22,17.53 17.53,22 12,22C6.47,22 2,17.53 2,12C2,6.47 6.47,2 12,2M15.59,7L12,10.59L8.41,7L7,8.41L10.59,12L7,15.59L8.41,17L12,13.41L15.59,17L17,15.59L13.41,12L17,8.41L15.59,7Z"/></symbol><symbol viewBox="0 0 24 24" id="icon-close"><title>close</title><path d="M19,6.41L17.59,5L12,10.59L6.41,5L5,6.41L10.59,12L5,17.59L6.41,19L12,13.41L17.59,19L19,17.59L13.41,12L19,6.41Z"/></symbol><symbol viewBox="0 0 24 24" id="icon-cloud-download"><title>cloud-download</title><path d="M0 0h24v24H0z" fill="none"/><path d="M19.35 10.04C18.67 6.59 15.64 4 12 4 9.11 4 6.6 5.64 5.35 8.04 2.34 8.36 0 10.91 0 14c0 3.31 2.69 6 6 6h13c2.76 0 5-2.24 5-5 0-2.64-2.05-4.78-4.65-4.96zM17 13l-5 5-5-5h3V9h4v4h3z"/></symbol><symbol viewBox="0 0 24 24" id="icon-content-save"><title>content-save</title><path fill="currentColor" d="M15,9H5V5H15M12,19A3,3 0 0,1 9,16A3,3 0 0,1 12,13A3,3 0 0,1 15,16A3,3 0 0,1 12,19M17,3H5C3.89,3 3,3.9 3,5V19A2,2 0 0,0 5,21H19A2,2 0 0,0 21,19V7L17,3Z"/></symbol><symbol viewBox="0 0 24 24" id="icon-copy"><title>copy</title><path d="M19,21H8V7H19M19,5H8A2,2 0 0,0 6,7V21A2,2 0 0,0 8,23H19A2,2 0 0,0 21,21V7A2,2 0 0,0 19,5M16,1H4A2,2 0 0,0 2,3V17H4V3H16V1Z"/></symbol><symbol viewBox="0 0 24 24" id="icon-currency-usd"><title>currency-usd</title><path d="M7,15H9C9,16.08 10.37,17 12,17C13.63,17 15,16.08 15,15C15,13.9 13.96,13.5 11.76,12.97C9.64,12.44 7,11.78 7,9C7,7.21 8.47,5.69 10.5,5.18V3H13.5V5.18C15.53,5.69 17,7.21 17,9H15C15,7.92 13.63,7 12,7C10.37,7 9,7.92 9,9C9,10.1 10.04,10.5 12.24,11.03C14.36,11.56 17,12.22 17,15C17,16.79 15.53,18.31 13.5,18.82V21H10.5V18.82C8.47,18.31 7,16.79 7,15Z"/></symbol><symbol viewBox="0 0 24 24" id="icon-delete-2"><title>delete-2</title><path d="M6 19c0 1.1.9 2 2 2h8c1.1 0 2-.9 2-2V7H6v12zM19 4h-3.5l-1-1h-5l-1 1H5v2h14V4z"/><path d="M0 0h24v24H0z" fill="none"/></symbol><symbol viewBox="0 0 24 24" id="icon-delete"><title>delete</title><path d="M19,4H15.5L14.5,3H9.5L8.5,4H5V6H19M6,19A2,2 0 0,0 8,21H16A2,2 0 0,0 18,19V7H6V19Z"/></symbol><symbol viewBox="0 0 24 24" id="icon-download"><title>download</title><path d="M5,20H19V18H5M19,9H15V3H9V9H5L12,16L19,9Z"/></symbol><symbol viewBox="0 0 24 24" id="icon-earth"><title>earth</title><path d="M17.9,17.39C17.64,16.59 16.89,16 16,16H15V13A1,1 0 0,0 14,12H8V10H10A1,1 0 0,0 11,9V7H13A2,2 0 0,0 15,5V4.59C17.93,5.77 20,8.64 20,12C20,14.08 19.2,15.97 17.9,17.39M11,19.93C7.05,19.44 4,16.08 4,12C4,11.38 4.08,10.78 4.21,10.21L9,15V16A2,2 0 0,0 11,18M12,2A10,10 0 0,0 2,12A10,10 0 0,0 12,22A10,10 0 0,0 22,12A10,10 0 0,0 12,2Z"/></symbol><symbol viewBox="0 0 24 24" id="icon-ellipsis-h"><title>ellipsis-h</title><path fill="none" d="M0 0h24v24H0V0z"/><path d="M6 10c-1.1 0-2 .9-2 2s.9 2 2 2 2-.9 2-2-.9-2-2-2zm12 0c-1.1 0-2 .9-2 2s.9 2 2 2 2-.9 2-2-.9-2-2-2zm-6 0c-1.1 0-2 .9-2 2s.9 2 2 2 2-.9 2-2-.9-2-2-2z"/></symbol><symbol viewBox="0 0 24 24" id="icon-ellipsis-v"><title>ellipsis-v</title><path fill="none" d="M0 0h24v24H0V0z"/><path d="M12 8c1.1 0 2-.9 2-2s-.9-2-2-2-2 .9-2 2 .9 2 2 2zm0 2c-1.1 0-2 .9-2 2s.9 2 2 2 2-.9 2-2-.9-2-2-2zm0 6c-1.1 0-2 .9-2 2s.9 2 2 2 2-.9 2-2-.9-2-2-2z"/></symbol><symbol viewBox="0 0 24 24" id="icon-email"><title>email</title><path d="M20,8L12,13L4,8V6L12,11L20,6M20,4H4C2.89,4 2,4.89 2,6V18A2,2 0 0,0 4,20H20A2,2 0 0,0 22,18V6C22,4.89 21.1,4 20,4Z"/></symbol><symbol viewBox="0 0 24 24" id="icon-error"><title>error</title><path d="M0 0h24v24H0z" fill="none"/><path d="M12 2C6.48 2 2 6.48 2 12s4.48 10 10 10 10-4.48 10-10S17.52 2 12 2zm1 15h-2v-2h2v2zm0-4h-2V7h2v6z"/></symbol><symbol viewBox="0 0 24 24" id="icon-external-link"><title>external-link</title><path d="M0 0h24v24H0z" fill="none"/><path d="M19 19H5V5h7V3H5c-1.11 0-2 .9-2 2v14c0 1.1.89 2 2 2h14c1.1 0 2-.9 2-2v-7h-2v7zM14 3v2h3.59l-9.83 9.83 1.41 1.41L19 6.41V10h2V3h-7z"/></symbol><symbol viewBox="0 0 24 24" id="icon-file-document"><title>file-document</title><path d="M6,2A2,2 0 0,0 4,4V20A2,2 0 0,0 6,22H18A2,2 0 0,0 20,20V8L14,2H6M6,4H13V9H18V20H6V4M8,12V14H16V12H8M8,16V18H13V16H8Z"/></symbol><symbol viewBox="0 0 24 24" id="icon-file-excel"><title>file-excel</title><path d="M16.2,17H14.2L12,13.2L9.8,17H7.8L11,12L7.8,7H9.8L12,10.8L14.2,7H16.2L13,12M19,3H5C3.89,3 3,3.89 3,5V19A2,2 0 0,0 5,21H19A2,2 0 0,0 21,19V5C21,3.89 20.1,3 19,3Z"/></symbol><symbol viewBox="0 0 24 24" id="icon-file-pdf"><title>file-pdf</title><path d="M19,3A2,2 0 0,1 21,5V19A2,2 0 0,1 19,21H5C3.89,21 3,20.1 3,19V5C3,3.89 3.89,3 5,3H19M10.59,10.08C10.57,10.13 10.3,11.84 8.5,14.77C8.5,14.77 5,16.58 5.83,17.94C6.5,19 8.15,17.9 9.56,15.27C9.56,15.27 11.38,14.63 13.79,14.45C13.79,14.45 17.65,16.19 18.17,14.34C18.69,12.5 15.12,12.9 14.5,13.09C14.5,13.09 12.46,11.75 12,9.89C12,9.89 13.13,5.95 11.38,6C9.63,6.05 10.29,9.12 10.59,10.08M11.4,11.13C11.43,11.13 11.87,12.33 13.29,13.58C13.29,13.58 10.96,14.04 9.9,14.5C9.9,14.5 10.9,12.75 11.4,11.13M15.32,13.84C15.9,13.69 17.64,14 17.58,14.32C17.5,14.65 15.32,13.84 15.32,13.84M8.26,15.7C7.73,16.91 6.83,17.68 6.6,17.67C6.37,17.66 7.3,16.07 8.26,15.7M11.4,8.76C11.39,8.71 11.03,6.57 11.4,6.61C11.94,6.67 11.4,8.71 11.4,8.76Z"/></symbol><symbol viewBox="0 0 24 24" id="icon-file-powerpoint"><title>file-powerpoint</title><path d="M9.8,13.4H12.3C13.8,13.4 14.46,13.12 15.1,12.58C15.74,12.03 16,11.25 16,10.23C16,9.26 15.75,8.5 15.1,7.88C14.45,7.29 13.83,7 12.3,7H8V17H9.8V13.4M19,3A2,2 0 0,1 21,5V19A2,2 0 0,1 19,21H5A2,2 0 0,1 3,19V5C3,3.89 3.9,3 5,3H19M9.8,12V8.4H12.1C12.76,8.4 13.27,8.65 13.6,9C13.93,9.35 14.1,9.72 14.1,10.24C14.1,10.8 13.92,11.19 13.6,11.5C13.28,11.81 12.9,12 12.22,12H9.8Z"/></symbol><symbol viewBox="0 0 24 24" id="icon-file-word"><title>file-word</title><path d="M15.5,17H14L12,9.5L10,17H8.5L6.1,7H7.8L9.34,14.5L11.3,7H12.7L14.67,14.5L16.2,7H17.9M19,3H5C3.89,3 3,3.89 3,5V19A2,2 0 0,0 5,21H19A2,2 0 0,0 21,19V5C21,3.89 20.1,3 19,3Z"/></symbol><symbol viewBox="0 0 24 24" id="icon-file"><title>file</title><path d="M13,9V3.5L18.5,9M6,2C4.89,2 4,2.89 4,4V20A2,2 0 0,0 6,22H18A2,2 0 0,0 20,20V8L14,2H6Z"/></symbol><symbol viewBox="0 0 24 24" id="icon-filter"><title>filter</title><path d="M6,13H18V11H6M3,6V8H21V6M10,18H14V16H10V18Z"/></symbol><symbol viewBox="0 0 24 24" id="icon-flag"><title>flag</title><path d="M14.4,6L14,4H5V21H7V14H12.6L13,16H20V6H14.4Z"/></symbol><symbol viewBox="0 0 24 24" id="icon-forward"><title>forward</title><path d="M12,8V4L20,12L12,20V16H4V8H12Z"/></symbol><symbol viewBox="0 0 24 24" id="icon-gear"><title>gear</title><path d="M12,15.5A3.5,3.5 0 0,1 8.5,12A3.5,3.5 0 0,1 12,8.5A3.5,3.5 0 0,1 15.5,12A3.5,3.5 0 0,1 12,15.5M19.43,12.97C19.47,12.65 19.5,12.33 19.5,12C19.5,11.67 19.47,11.34 19.43,11L21.54,9.37C21.73,9.22 21.78,8.95 21.66,8.73L19.66,5.27C19.54,5.05 19.27,4.96 19.05,5.05L16.56,6.05C16.04,5.66 15.5,5.32 14.87,5.07L14.5,2.42C14.46,2.18 14.25,2 14,2H10C9.75,2 9.54,2.18 9.5,2.42L9.13,5.07C8.5,5.32 7.96,5.66 7.44,6.05L4.95,5.05C4.73,4.96 4.46,5.05 4.34,5.27L2.34,8.73C2.21,8.95 2.27,9.22 2.46,9.37L4.57,11C4.53,11.34 4.5,11.67 4.5,12C4.5,12.33 4.53,12.65 4.57,12.97L2.46,14.63C2.27,14.78 2.21,15.05 2.34,15.27L4.34,18.73C4.46,18.95 4.73,19.03 4.95,18.95L7.44,17.94C7.96,18.34 8.5,18.68 9.13,18.93L9.5,21.58C9.54,21.82 9.75,22 10,22H14C14.25,22 14.46,21.82 14.5,21.58L14.87,18.93C15.5,18.67 16.04,18.34 16.56,17.94L19.05,18.95C19.27,19.03 19.54,18.95 19.66,18.73L21.66,15.27C21.78,15.05 21.73,14.78 21.54,14.63L19.43,12.97Z"/></symbol><symbol viewBox="0 0 24 24" id="icon-glass-cocktail"><title>glass-cocktail</title><path d="M7.5,7L5.5,5H18.5L16.5,7M11,13V19H6V21H18V19H13V13L21,5V3H3V5L11,13Z"/></symbol><symbol viewBox="0 0 24 24" id="icon-group"><title>group</title><path d="M16,13C15.71,13 15.38,13 15.03,13.05C16.19,13.89 17,15 17,16.5V19H23V16.5C23,14.17 18.33,13 16,13M8,13C5.67,13 1,14.17 1,16.5V19H15V16.5C15,14.17 10.33,13 8,13M8,11A3,3 0 0,0 11,8A3,3 0 0,0 8,5A3,3 0 0,0 5,8A3,3 0 0,0 8,11M16,11A3,3 0 0,0 19,8A3,3 0 0,0 16,5A3,3 0 0,0 13,8A3,3 0 0,0 16,11Z"/></symbol><symbol viewBox="0 0 24 24" id="icon-heart"><title>heart</title><path d="M12,21.35L10.55,20.03C5.4,15.36 2,12.27 2,8.5C2,5.41 4.42,3 7.5,3C9.24,3 10.91,3.81 12,5.08C13.09,3.81 14.76,3 16.5,3C19.58,3 22,5.41 22,8.5C22,12.27 18.6,15.36 13.45,20.03L12,21.35Z"/></symbol><symbol viewBox="0 0 24 24" id="icon-help"><title>help</title><path fill="none" d="M0 0h24v24H0V0z"/><path d="M12 2C6.48 2 2 6.48 2 12s4.48 10 10 10 10-4.48 10-10S17.52 2 12 2zm1 17h-2v-2h2v2zm2.07-7.75l-.9.92c-.5.51-.86.97-1.04 1.69-.08.32-.13.68-.13 1.14h-2v-.5c0-.46.08-.9.22-1.31.2-.58.53-1.1.95-1.52l1.24-1.26c.46-.44.68-1.1.55-1.8-.13-.72-.69-1.33-1.39-1.53-1.11-.31-2.14.32-2.47 1.27-.12.37-.43.65-.82.65h-.3C8.4 9 8 8.44 8.16 7.88c.43-1.47 1.68-2.59 3.23-2.83 1.52-.24 2.97.55 3.87 1.8 1.18 1.63.83 3.38-.19 4.4z"/></symbol><symbol viewBox="0 0 24 24" id="icon-history"><title>history</title><path fill="none" d="M0 0h24v24H0V0z"/><path d="M13.26 3C8.17 2.86 4 6.95 4 12H2.21c-.45 0-.67.54-.35.85l2.79 2.8c.2.2.51.2.71 0l2.79-2.8c.31-.31.09-.85-.36-.85H6c0-3.9 3.18-7.05 7.1-7 3.72.05 6.85 3.18 6.9 6.9.05 3.91-3.1 7.1-7 7.1-1.61 0-3.1-.55-4.28-1.48-.4-.31-.96-.28-1.32.08-.42.42-.39 1.13.08 1.49C9 20.29 10.91 21 13 21c5.05 0 9.14-4.17 9-9.26-.13-4.69-4.05-8.61-8.74-8.74zm-.51 5c-.41 0-.75.34-.75.75v3.68c0 .35.19.68.49.86l3.12 1.85c.36.21.82.09 1.03-.26.21-.36.09-.82-.26-1.03l-2.88-1.71v-3.4c0-.4-.34-.74-.75-.74z"/></symbol><symbol viewBox="0 0 24 24" id="icon-home"><title>home</title><path d="M10,20V14H14V20H19V12H22L12,3L2,12H5V20H10Z"/></symbol><symbol viewBox="0 0 24 24" id="icon-image"><title>image</title><path d="M8.5,13.5L11,16.5L14.5,12L19,18H5M21,19V5C21,3.89 20.1,3 19,3H5A2,2 0 0,0 3,5V19A2,2 0 0,0 5,21H19A2,2 0 0,0 21,19Z"/></symbol><symbol viewBox="0 0 24 24" id="icon-inbox"><title>inbox</title><path d="M19,15H15C15,16.66 13.66,18 12,18C10.34,18 9,16.66 9,15H5V5H19M19,3H5C3.89,3 3,3.9 3,5V19C3,20.1 3.9,21 5,21H19C20.1,21 21,20.1 21,19V5C21,3.9 20.1,3 19,3Z"/></symbol><symbol viewBox="0 0 24 24" id="icon-information"><title>information</title><path d="M0 0h24v24H0z" fill="none"/><path d="M12 2C6.48 2 2 6.48 2 12s4.48 10 10 10 10-4.48 10-10S17.52 2 12 2zm1 15h-2v-6h2v6zm0-8h-2V7h2v2z"/></symbol><symbol viewBox="0 0 24 24" id="icon-lightning"><title>lightning</title> <path d="M11.0928419,13.5439247 L7.64731249,13.5439247 C7.16804711,13.5439247 6.84421916,12.9821861 7.07737529,12.5187517 L11.8441229,3.38581774 C12.1420446,2.72577484 13.0617159,2.96451376 13.0617159,3.70881745 L13.0617159,10.5292607 L16.351808,10.5292607 C16.8310734,10.5292607 17.1419482,11.0769559 16.9346983,11.5403902 L12.3233882,20.603107 C12.0125134,21.2771933 11.0928419,21.0384544 11.0928419,20.2941507 L11.0928419,13.5439247 Z"/> </symbol><symbol viewBox="0 0 24 24" id="icon-list"><title>list</title><path d="M3 13h2v-2H3v2zm0 4h2v-2H3v2zm0-8h2V7H3v2zm4 4h14v-2H7v2zm0 4h14v-2H7v2zM7 7v2h14V7H7z"/><path d="M0 0h24v24H0z" fill="none"/></symbol><symbol viewBox="0 0 24 24" id="icon-local-atm"><title>local-atm</title><path d="M0 0h24v24H0z" fill="none"/><path d="M11 17h2v-1h1c.55 0 1-.45 1-1v-3c0-.55-.45-1-1-1h-3v-1h4V8h-2V7h-2v1h-1c-.55 0-1 .45-1 1v3c0 .55.45 1 1 1h3v1H9v2h2v1zm9-13H4c-1.11 0-1.99.89-1.99 2L2 18c0 1.11.89 2 2 2h16c1.11 0 2-.89 2-2V6c0-1.11-.89-2-2-2zm0 14H4V6h16v12z"/></symbol><symbol viewBox="0 0 24 24" id="icon-lock"><title>lock</title><path d="M12,17A2,2 0 0,0 14,15C14,13.89 13.1,13 12,13A2,2 0 0,0 10,15A2,2 0 0,0 12,17M18,8A2,2 0 0,1 20,10V20A2,2 0 0,1 18,22H6A2,2 0 0,1 4,20V10C4,8.89 4.9,8 6,8H7V6A5,5 0 0,1 12,1A5,5 0 0,1 17,6V8H18M12,3A3,3 0 0,0 9,6V8H15V6A3,3 0 0,0 12,3Z"/></symbol><symbol viewBox="0 0 24 24" id="icon-map-marker"><title>map-marker</title><path d="M12,11.5A2.5,2.5 0 0,1 9.5,9A2.5,2.5 0 0,1 12,6.5A2.5,2.5 0 0,1 14.5,9A2.5,2.5 0 0,1 12,11.5M12,2A7,7 0 0,0 5,9C5,14.25 12,22 12,22C12,22 19,14.25 19,9A7,7 0 0,0 12,2Z"/></symbol><symbol viewBox="0 0 24 24" id="icon-minus"><title>minus</title><path d="M19 13H5v-2h14v2z"/><path d="M0 0h24v24H0z" fill="none"/></symbol><symbol viewBox="0 0 24 24" id="icon-music"><title>music</title><path d="M0 0h24v24H0z" fill="none"/><path d="M12 3v9.28c-.47-.17-.97-.28-1.5-.28C8.01 12 6 14.01 6 16.5S8.01 21 10.5 21c2.31 0 4.2-1.75 4.45-4H15V6h4V3h-7z"/></symbol><symbol viewBox="0 0 24 24" id="icon-panorama-fish-eye"><title>panorama-fish-eye</title><path d="M0 0h24v24H0z" fill="none"/><path d="M12 2C6.47 2 2 6.47 2 12s4.47 10 10 10 10-4.47 10-10S17.53 2 12 2zm0 18c-4.41 0-8-3.59-8-8s3.59-8 8-8 8 3.59 8 8-3.59 8-8 8z"/></symbol><symbol viewBox="0 0 24 24" id="icon-pencil"><title>pencil</title><path d="M20.71,7.04C21.1,6.65 21.1,6 20.71,5.63L18.37,3.29C18,2.9 17.35,2.9 16.96,3.29L15.12,5.12L18.87,8.87M3,17.25V21H6.75L17.81,9.93L14.06,6.18L3,17.25Z"/></symbol><symbol viewBox="0 0 24 24" id="icon-phone"><title>phone</title><path d="M6.62,10.79C8.06,13.62 10.38,15.94 13.21,17.38L15.41,15.18C15.69,14.9 16.08,14.82 16.43,14.93C17.55,15.3 18.75,15.5 20,15.5A1,1 0 0,1 21,16.5V20A1,1 0 0,1 20,21A17,17 0 0,1 3,4A1,1 0 0,1 4,3H7.5A1,1 0 0,1 8.5,4C8.5,5.25 8.7,6.45 9.07,7.57C9.18,7.92 9.1,8.31 8.82,8.59L6.62,10.79Z"/></symbol><symbol viewBox="0 0 24 24" id="icon-play"><title>play</title><path d="M8,5.14V19.14L19,12.14L8,5.14Z"/></symbol><symbol viewBox="0 0 24 24" id="icon-plus"><title>plus</title><path d="M19,13H13V19H11V13H5V11H11V5H13V11H19V13Z"/></symbol><symbol viewBox="0 0 24 24" id="icon-radio_button_unchecked"><title>radio_button_unchecked</title><path fill="none" d="M0 0h24v24H0V0z"/><path d="M12 2C6.48 2 2 6.48 2 12s4.48 10 10 10 10-4.48 10-10S17.52 2 12 2zm0 18c-4.42 0-8-3.58-8-8s3.58-8 8-8 8 3.58 8 8-3.58 8-8 8z"/></symbol><symbol viewBox="0 0 24 24" id="icon-refresh"><title>refresh</title><path d="M17.65,6.35C16.2,4.9 14.21,4 12,4A8,8 0 0,0 4,12A8,8 0 0,0 12,20C15.73,20 18.84,17.45 19.73,14H17.65C16.83,16.33 14.61,18 12,18A6,6 0 0,1 6,12A6,6 0 0,1 12,6C13.66,6 15.14,6.69 16.22,7.78L13,11H20V4L17.65,6.35Z"/></symbol><symbol viewBox="0 0 24 24" id="icon-remove-circle"><title>remove-circle</title><path d="M0 0h24v24H0z" fill="none"/><path d="M12 2C6.48 2 2 6.48 2 12s4.48 10 10 10 10-4.48 10-10S17.52 2 12 2zm5 11H7v-2h10v2z"/></symbol><symbol viewBox="0 0 24 24" id="icon-rotate-left"><title>rotate-left</title><path d="M13,4.07V1L8.45,5.55L13,10V6.09C15.84,6.57 18,9.03 18,12C18,14.97 15.84,17.43 13,17.91V19.93C16.95,19.44 20,16.08 20,12C20,7.92 16.95,4.56 13,4.07M7.1,18.32C8.26,19.22 9.61,19.76 11,19.93V17.9C10.13,17.75 9.29,17.41 8.54,16.87L7.1,18.32M6.09,13H4.07C4.24,14.39 4.79,15.73 5.69,16.89L7.1,15.47C6.58,14.72 6.23,13.88 6.09,13M7.11,8.53L5.7,7.11C4.8,8.27 4.24,9.61 4.07,11H6.09C6.23,10.13 6.58,9.28 7.11,8.53Z"/></symbol><symbol viewBox="0 0 24 24" id="icon-school"><title>school</title><path d="M12,3L1,9L12,15L21,10.09V17H23V9M5,13.18V17.18L12,21L19,17.18V13.18L12,17L5,13.18Z"/></symbol><symbol viewBox="0 0 24 24" id="icon-search"><title>search</title><path d="M15.5 14h-.79l-.28-.27C15.41 12.59 16 11.11 16 9.5 16 5.91 13.09 3 9.5 3S3 5.91 3 9.5 5.91 16 9.5 16c1.61 0 3.09-.59 4.23-1.57l.27.28v.79l5 4.99L20.49 19l-4.99-5zm-6 0C7.01 14 5 11.99 5 9.5S7.01 5 9.5 5 14 7.01 14 9.5 11.99 14 9.5 14z"/><path d="M0 0h24v24H0z" fill="none"/></symbol><symbol viewBox="0 0 24 24" id="icon-send"><title>send</title><path fill="none" d="M0 0h24v24H0V0z"/><path d="M3.4 20.4l17.45-7.48c.81-.35.81-1.49 0-1.84L3.4 3.6c-.66-.29-1.39.2-1.39.91L2 9.12c0 .5.37.93.87.99L17 12 2.87 13.88c-.5.07-.87.5-.87 1l.01 4.61c0 .71.73 1.2 1.39.91z"/></symbol><symbol viewBox="0 0 24 24" id="icon-settings"><title>settings</title><path fill="none" d="M0 0h24v24H0V0z"/><path d="M19.43 12.98c.04-.32.07-.64.07-.98s-.03-.66-.07-.98l2.11-1.65c.19-.15.24-.42.12-.64l-2-3.46c-.12-.22-.39-.3-.61-.22l-2.49 1c-.52-.4-1.08-.73-1.69-.98l-.38-2.65C14.46 2.18 14.25 2 14 2h-4c-.25 0-.46.18-.49.42l-.38 2.65c-.61.25-1.17.59-1.69.98l-2.49-1c-.23-.09-.49 0-.61.22l-2 3.46c-.13.22-.07.49.12.64l2.11 1.65c-.04.32-.07.65-.07.98s.03.66.07.98l-2.11 1.65c-.19.15-.24.42-.12.64l2 3.46c.12.22.39.3.61.22l2.49-1c.52.4 1.08.73 1.69.98l.38 2.65c.03.24.24.42.49.42h4c.25 0 .46-.18.49-.42l.38-2.65c.61-.25 1.17-.59 1.69-.98l2.49 1c.23.09.49 0 .61-.22l2-3.46c.12-.22.07-.49-.12-.64l-2.11-1.65zM12 15.5c-1.93 0-3.5-1.57-3.5-3.5s1.57-3.5 3.5-3.5 3.5 1.57 3.5 3.5-1.57 3.5-3.5 3.5z"/></symbol><symbol viewBox="0 0 24 24" id="icon-sitemap"><title>sitemap</title><path d="M9,2V8H11V11H5C3.89,11 3,11.89 3,13V16H1V22H7V16H5V13H11V16H9V22H15V16H13V13H19V16H17V22H23V16H21V13C21,11.89 20.11,11 19,11H13V8H15V2H9Z"/></symbol><symbol viewBox="0 0 24 24" id="icon-spa"><title>spa</title><path d="M15.5,9.63C15.31,6.84 14.18,4.12 12.06,2C9.92,4.14 8.74,6.86 8.5,9.63C9.79,10.31 10.97,11.19 12,12.26C13.03,11.2 14.21,10.32 15.5,9.63M12,15.45C9.85,12.17 6.18,10 2,10C2,20 11.32,21.89 12,22C12.68,21.88 22,20 22,10C17.82,10 14.15,12.17 12,15.45Z"/></symbol><symbol viewBox="0 0 24 24" id="icon-sprout"><title>sprout</title><path d="M2,22V20C2,20 7,18 12,18C17,18 22,20 22,20V22H2M11.3,9.1C10.1,5.2 4,6.1 4,6.1C4,6.1 4.2,13.9 9.9,12.7C9.5,9.8 8,9 8,9C10.8,9 11,12.4 11,12.4V17C11.3,17 11.7,17 12,17C12.3,17 12.7,17 13,17V12.8C13,12.8 13,8.9 16,7.9C16,7.9 14,10.9 14,12.9C21,13.6 21,4 21,4C21,4 12.1,3 11.3,9.1Z"/></symbol><symbol viewBox="0 0 24 24" id="icon-star"><title>star</title><path d="M12,15.39L8.24,17.66L9.23,13.38L5.91,10.5L10.29,10.13L12,6.09L13.71,10.13L18.09,10.5L14.77,13.38L15.76,17.66M22,9.24L14.81,8.63L12,2L9.19,8.63L2,9.24L7.45,13.97L5.82,21L12,17.27L18.18,21L16.54,13.97L22,9.24Z"/></symbol><symbol viewBox="0 0 24 24" id="icon-stop"><title>stop</title><path d="M18,18H6V6H18V18Z"/></symbol><symbol viewBox="0 0 24 24" id="icon-swap-horiz"><title>swap-horiz</title><path d="M6.99 11L3 15l3.99 4v-3H14v-2H6.99v-3zM21 9l-3.99-4v3H10v2h7.01v3L21 9z"/><path d="M0 0h24v24H0z" fill="none"/></symbol><symbol viewBox="0 0 24 24" id="icon-thumb-down"><title>thumb-down</title><path fill="none" d="M0 0h24v24H0z"/><path d="M15 3H6c-.83 0-1.54.5-1.84 1.22l-3.02 7.05c-.09.23-.14.47-.14.73v2c0 1.1.9 2 2 2h6.31l-.95 4.57-.03.32c0 .41.17.79.44 1.06L9.83 23l6.59-6.59c.36-.36.58-.86.58-1.41V5c0-1.1-.9-2-2-2zm4 0v12h4V3h-4z"/></symbol><symbol viewBox="0 0 24 24" id="icon-thumb-up"><title>thumb-up</title><path fill="none" d="M0 0h24v24H0V0zm0 0h24v24H0V0z"/><path d="M13.12 2.06L7.58 7.6c-.37.37-.58.88-.58 1.41V19c0 1.1.9 2 2 2h9c.8 0 1.52-.48 1.84-1.21l3.26-7.61C23.94 10.2 22.49 8 20.34 8h-5.65l.95-4.58c.1-.5-.05-1.01-.41-1.37-.59-.58-1.53-.58-2.11.01zM3 21c1.1 0 2-.9 2-2v-8c0-1.1-.9-2-2-2s-2 .9-2 2v8c0 1.1.9 2 2 2z"/></symbol><symbol viewBox="0 0 24 24" id="icon-trash"><title>trash</title><path d="M9,3V4H4V6H5V19A2,2 0 0,0 7,21H17A2,2 0 0,0 19,19V6H20V4H15V3H9M7,6H17V19H7V6M9,8V17H11V8H9M13,8V17H15V8H13Z"/></symbol><symbol viewBox="0 0 24 24" id="icon-trophy-variant"><title>trophy-variant</title><path d="M20.2,4H20H17V2H7V4H4.5H3.8H2V11C2,12 3,13 4,13H7.2C7.6,14.9 8.6,16.6 11,16.9V19C8,19.2 8,20.3 8,21.6V22H16V21.7C16,20.4 16,19.3 13,19.1V17C15.5,16.7 16.5,15 16.8,13.1H20C21,13.1 22,12.1 22,11.1V4H20.2M4,11V6H7V8V11C5.6,11 4.4,11 4,11M20,11C19.6,11 18.4,11 17,11V6H18H20V11Z"/></symbol><symbol viewBox="0 0 24 24" id="icon-tune"><title>tune</title><path d="M0 0h24v24H0z" fill="none"/><path d="M3 17v2h6v-2H3zM3 5v2h10V5H3zm10 16v-2h8v-2h-8v-2h-2v6h2zM7 9v2H3v2h4v2h2V9H7zm14 4v-2H11v2h10zm-6-4h2V7h4V5h-4V3h-2v6z"/></symbol><symbol viewBox="0 0 24 24" id="icon-undo"><title>undo</title><path d="M0 0h24v24H0z" fill="none"/><path d="M12.5 8c-2.65 0-5.05.99-6.9 2.6L2 7v9h9l-3.62-3.62c1.39-1.16 3.16-1.88 5.12-1.88 3.54 0 6.55 2.31 7.6 5.5l2.37-.78C21.08 11.03 17.15 8 12.5 8z"/></symbol><symbol viewBox="0 0 24 24" id="icon-unlink"><title>unlink</title><path d="M17,7H13V8.9H17C18.71,8.9 20.1,10.29 20.1,12C20.1,13.43 19.12,14.63 17.79,15L19.25,16.44C20.88,15.61 22,13.95 22,12A5,5 0 0,0 17,7M16,11H13.81L15.81,13H16V11M2,4.27L5.11,7.38C3.29,8.12 2,9.91 2,12A5,5 0 0,0 7,17H11V15.1H7C5.29,15.1 3.9,13.71 3.9,12C3.9,10.41 5.11,9.1 6.66,8.93L8.73,11H8V13H10.73L13,15.27V17H14.73L18.74,21L20,19.74L3.27,3L2,4.27Z"/></symbol><symbol viewBox="0 0 24 24" id="icon-upload"><title>upload</title><path d="M9,16V10H5L12,3L19,10H15V16H9M5,20V18H19V20H5Z"/></symbol><symbol viewBox="0 0 24 24" id="icon-videocam copy"><title>videocam copy</title><path d="M0 0h24v24H0z" fill="none"/><path d="M17 10.5V7c0-.55-.45-1-1-1H4c-.55 0-1 .45-1 1v10c0 .55.45 1 1 1h12c.55 0 1-.45 1-1v-3.5l4 4v-11l-4 4z"/></symbol><symbol viewBox="0 0 24 24" id="icon-videocam"><title>videocam</title><path d="M0 0h24v24H0z" fill="none"/><path d="M17 10.5V7c0-.55-.45-1-1-1H4c-.55 0-1 .45-1 1v10c0 .55.45 1 1 1h12c.55 0 1-.45 1-1v-3.5l4 4v-11l-4 4z"/></symbol><symbol viewBox="0 0 24 24" id="icon-visibility-off"><title>visibility-off</title><path d="M0 0h24v24H0zm0 0h24v24H0zm0 0h24v24H0zm0 0h24v24H0z" fill="none"/><path d="M12 7c2.76 0 5 2.24 5 5 0 .65-.13 1.26-.36 1.83l2.92 2.92c1.51-1.26 2.7-2.89 3.43-4.75-1.73-4.39-6-7.5-11-7.5-1.4 0-2.74.25-3.98.7l2.16 2.16C10.74 7.13 11.35 7 12 7zM2 4.27l2.28 2.28.46.46C3.08 8.3 1.78 10.02 1 12c1.73 4.39 6 7.5 11 7.5 1.55 0 3.03-.3 4.38-.84l.42.42L19.73 22 21 20.73 3.27 3 2 4.27zM7.53 9.8l1.55 1.55c-.05.21-.08.43-.08.65 0 1.66 1.34 3 3 3 .22 0 .44-.03.65-.08l1.55 1.55c-.67.33-1.41.53-2.2.53-2.76 0-5-2.24-5-5 0-.79.2-1.53.53-2.2zm4.31-.78l3.15 3.15.02-.16c0-1.66-1.34-3-3-3l-.17.01z"/></symbol><symbol viewBox="0 0 24 24" id="icon-visibility"><title>visibility</title><path d="M0 0h24v24H0z" fill="none"/><path d="M12 4.5C7 4.5 2.73 7.61 1 12c1.73 4.39 6 7.5 11 7.5s9.27-3.11 11-7.5c-1.73-4.39-6-7.5-11-7.5zM12 17c-2.76 0-5-2.24-5-5s2.24-5 5-5 5 2.24 5 5-2.24 5-5 5zm0-8c-1.66 0-3 1.34-3 3s1.34 3 3 3 3-1.34 3-3-1.34-3-3-3z"/></symbol><symbol viewBox="0 0 24 24" id="icon-warning"><title>warning</title><path d="M4.47 21h15.06c1.54 0 2.5-1.67 1.73-3L13.73 4.99c-.77-1.33-2.69-1.33-3.46 0L2.74 18c-.77 1.33.19 3 1.73 3zM12 14c-.55 0-1-.45-1-1v-2c0-.55.45-1 1-1s1 .45 1 1v2c0 .55-.45 1-1 1zm1 4h-2v-2h2v2z"/></symbol><symbol viewBox="0 0 24 24" id="icon-work"><title>work</title><path fill="none" d="M0 0h24v24H0V0z"/><path d="M20 6h-4V4c0-1.11-.89-2-2-2h-4c-1.11 0-2 .89-2 2v2H4c-1.11 0-1.99.89-1.99 2L2 19c0 1.11.89 2 2 2h16c1.11 0 2-.89 2-2V8c0-1.11-.89-2-2-2zm-6 0h-4V4h4v2z"/></symbol></svg>