<?xml version="1.0" encoding="UTF-8"?>
<svg width="239px" height="162px" viewBox="0 0 239 162" version="1.1" xmlns="http://www.w3.org/2000/svg" xmlns:xlink="http://www.w3.org/1999/xlink">
    <!-- Generator: Sketch 53.2 (72643) - https://sketchapp.com -->
    <title>inbox-empty</title>
    <desc>Created with Sketch.</desc>
    <g id="Page-1" stroke="none" stroke-width="1" fill="none" fill-rule="evenodd">
        <g id="inbox-empty" fill-rule="nonzero">
            <path d="M41.4,18.5 C31.3,18.5 22.8,25.7 20.9,35.2 C18.8,33.9 16.3,33.1 13.7,33.1 C6.2,33.1 0.1,39.2 0.1,46.7 C0.1,54.2 6.2,60.3 13.7,60.3 C13.9,60.3 14.1,60.3 14.2,60.3 L40.9,60.3 C41.1,60.3 41.3,60.3 41.4,60.3 C41.6,60.3 41.8,60.3 41.9,60.3 L47.1,60.3 C49.9,50 54.7,40.6 61.2,32.6 C58.4,24.5 50.6,18.5 41.4,18.5 Z" id="Path" fill="#B5D0FF" opacity="0.55"></path>
            <path d="M65.2,61.4 C65.3,61.4 65.4,61.4 65.5,61.4 L66,61.4 L66,61.4 C70.9,61 74.7,56.9 74.7,51.9 C74.7,46.6 70.4,42.4 65.2,42.4 C64.2,42.4 63.3,42.6 62.4,42.8 C62.6,41.7 62.7,40.5 62.7,39.3 C62.7,36.8 62.3,34.4 61.5,32.1 C54.7,40.6 49.5,50.5 46.6,61.4 L65,61.4 C65,61.4 65.1,61.4 65.2,61.4 Z" id="Path" fill="#B5D0FF" opacity="0.55"></path>
            <path d="M200.6,78.2 C199,78.2 197.7,79.5 197.7,81.1 C197.7,122.4 164.1,156 122.8,156 C81.5,156 47.9,122.4 47.9,81.1 C47.9,39.8 81.5,6.2 122.8,6.2 C140.4,6.2 157.4,12.4 170.9,23.7 C172.1,24.7 174,24.6 175,23.3 C176,22.1 175.9,20.2 174.6,19.2 C160.1,7.1 141.7,0.4 122.8,0.4 C78.3,0.4 42.1,36.6 42.1,81.1 C42.1,125.6 78.3,161.8 122.8,161.8 C167.3,161.8 203.5,125.6 203.5,81.1 C203.6,79.5 202.2,78.2 200.6,78.2 Z" id="Path" fill="#75A8FF"></path>
            <path d="M115.7,115.7 C116.8,116.8 118.6,116.8 119.7,115.8 L188.6,52.3 C189.8,51.2 189.9,49.4 188.8,48.2 C188.3,47.6 187.6,47.3 186.8,47.3 C186,47.3 185.3,47.5 184.7,48.1 L117.8,109.7 L88.9,80.8 C88.4,80.3 87.6,79.9 86.8,79.9 C86,79.9 85.3,80.2 84.7,80.8 C83.6,81.9 83.6,83.8 84.7,84.9 L115.7,115.7 Z" id="Path" fill="#75A8FF"></path>
            <path d="M227.8,128.4 C226.7,128.4 225.6,128.6 224.5,128.9 C224.7,127.7 224.8,126.4 224.8,125.1 C224.8,111.9 213.4,101.2 199.4,101.2 C198.5,101.2 197.6,101.3 196.7,101.3 C185.7,102.4 176.7,110.1 174.5,120.2 C172,118.7 169,117.8 165.7,117.8 C156.6,117.8 149.2,124.8 149.2,133.3 C149.2,139.1 152.6,144.1 157.6,146.8 C160,148.1 162.8,148.8 165.7,148.8 C165.9,148.8 166.1,148.8 166.4,148.8 L198.7,148.8 C198.9,148.8 199.1,148.8 199.4,148.8 C199.6,148.8 199.8,148.8 200.1,148.8 L227.4,148.8 C227.5,148.8 227.6,148.8 227.7,148.8 C227.8,148.8 227.9,148.8 228,148.8 L228.6,148.8 L228.6,148.8 C234.2,148.4 238.6,144 238.6,138.6 C238.7,133 233.8,128.4 227.8,128.4 Z" id="Path" fill="#B5D0FF" opacity="0.8"></path>
        </g>
    </g>
</svg>