<svg xmlns="http://www.w3.org/2000/svg" width="534" height="182" viewBox="0 0 534 182">
  <g fill="none" fill-rule="evenodd">
    <g transform="translate(432 66)">
      <path fill="#76767A" fill-rule="nonzero" d="M33.0517578,15 L31.8212891,15 L31.8212891,6.24316406 L28.6425781,6.24316406 L28.6425781,5.13574219 L36.2304688,5.13574219 L36.2304688,6.24316406 L33.0517578,6.24316406 L33.0517578,15 Z M39.5527344,8.54003906 C38.3769531,8.54003906 37.5566406,9.40136719 37.4677734,10.7070312 L41.5283203,10.7070312 C41.5009766,9.40136719 40.7216797,8.54003906 39.5527344,8.54003906 Z M41.4941406,13.0927734 L42.6699219,13.0927734 C42.3144531,14.3574219 41.1796875,15.1298828 39.5664062,15.1298828 C37.5224609,15.1298828 36.2441406,13.6533203 36.2441406,11.3222656 C36.2441406,9.00488281 37.5429688,7.50097656 39.5664062,7.50097656 C41.5556641,7.50097656 42.765625,8.91601562 42.765625,11.2060547 L42.765625,11.6572266 L37.4677734,11.6572266 L37.4677734,11.7119141 C37.5292969,13.1679688 38.3427734,14.0908203 39.59375,14.0908203 C40.5439453,14.0908203 41.1865234,13.7421875 41.4941406,13.0927734 Z M46.8808594,14.0976562 C48.0908203,14.0976562 48.9863281,13.3046875 48.9863281,12.2519531 L48.9863281,11.5751953 L47.0039062,11.7050781 C45.8828125,11.7802734 45.390625,12.1699219 45.390625,12.9082031 C45.390625,13.6601562 46.0263672,14.0976562 46.8808594,14.0976562 Z M46.6621094,15.1298828 C45.2333984,15.1298828 44.1738281,14.2822266 44.1738281,12.9355469 C44.1738281,11.6162109 45.1445312,10.8574219 46.8603516,10.7548828 L48.9863281,10.625 L48.9863281,9.95507812 C48.9863281,9.04589844 48.4189453,8.546875 47.3183594,8.546875 C46.4365234,8.546875 45.8212891,8.88183594 45.6572266,9.46289062 L44.4677734,9.46289062 C44.625,8.28027344 45.7871094,7.50097656 47.359375,7.50097656 C49.1572266,7.50097656 50.1621094,8.42382812 50.1621094,9.95507812 L50.1621094,15 L49.0410156,15 L49.0410156,13.9130859 L48.9316406,13.9130859 C48.453125,14.6992188 47.6464844,15.1298828 46.6621094,15.1298828 Z M52.3359375,15 L52.3359375,7.63085938 L53.4570312,7.63085938 L53.4570312,8.79296875 L53.5664062,8.79296875 C53.9013672,7.97265625 54.6396484,7.50097656 55.6240234,7.50097656 C56.6220703,7.50097656 57.3193359,8.02734375 57.6611328,8.79296875 L57.7705078,8.79296875 C58.1669922,8.01367188 59.0078125,7.50097656 60.0263672,7.50097656 C61.5302734,7.50097656 62.3710938,8.36230469 62.3710938,9.90722656 L62.3710938,15 L61.1953125,15 L61.1953125,10.1806641 C61.1953125,9.09375 60.6826172,8.56054688 59.6435547,8.56054688 C58.6181641,8.56054688 57.9345703,9.32617188 57.9345703,10.2626953 L57.9345703,15 L56.7587891,15 L56.7587891,9.99609375 C56.7587891,9.12109375 56.1503906,8.56054688 55.2207031,8.56054688 C54.2568359,8.56054688 53.5117188,9.39453125 53.5117188,10.4335938 L53.5117188,15 L52.3359375,15 Z"/>
      <rect width="20" height="20" fill="#75A8FF" rx="4"/>
      <g transform="translate(0 28)">
        <path fill="#76767A" fill-rule="nonzero" d="M33.1064453,15 L29.2578125,15 L29.2578125,5.13574219 L33.03125,5.13574219 C34.8427734,5.13574219 35.9501953,6.0859375 35.9501953,7.59667969 C35.9501953,8.62207031 35.1982422,9.55175781 34.2480469,9.72265625 L34.2480469,9.83203125 C35.5947266,10.0029297 36.4492188,10.9257812 36.4492188,12.2314453 C36.4492188,13.9677734 35.2050781,15 33.1064453,15 Z M30.4882812,6.22265625 L30.4882812,9.38769531 L32.4570312,9.38769531 C33.9472656,9.38769531 34.7060547,8.85449219 34.7060547,7.80859375 C34.7060547,6.80371094 33.9951172,6.22265625 32.7714844,6.22265625 L30.4882812,6.22265625 Z M30.4882812,13.9130859 L32.921875,13.9130859 C34.4052734,13.9130859 35.1845703,13.3115234 35.1845703,12.1699219 C35.1845703,11.0283203 34.3779297,10.4472656 32.8056641,10.4472656 L30.4882812,10.4472656 L30.4882812,13.9130859 Z M41.2480469,8.54003906 C40.0722656,8.54003906 39.2519531,9.40136719 39.1630859,10.7070312 L43.2236328,10.7070312 C43.1962891,9.40136719 42.4169922,8.54003906 41.2480469,8.54003906 Z M43.1894531,13.0927734 L44.3652344,13.0927734 C44.0097656,14.3574219 42.875,15.1298828 41.2617188,15.1298828 C39.2177734,15.1298828 37.9394531,13.6533203 37.9394531,11.3222656 C37.9394531,9.00488281 39.2382812,7.50097656 41.2617188,7.50097656 C43.2509766,7.50097656 44.4609375,8.91601562 44.4609375,11.2060547 L44.4609375,11.6572266 L39.1630859,11.6572266 L39.1630859,11.7119141 C39.2246094,13.1679688 40.0380859,14.0908203 41.2890625,14.0908203 C42.2392578,14.0908203 42.8818359,13.7421875 43.1894531,13.0927734 Z M46.3066406,15 L46.3066406,7.63085938 L47.4277344,7.63085938 L47.4277344,8.79296875 L47.5371094,8.79296875 C47.90625,7.97949219 48.6240234,7.50097656 49.7519531,7.50097656 C51.40625,7.50097656 52.3291016,8.47851562 52.3291016,10.2285156 L52.3291016,15 L51.1533203,15 L51.1533203,10.515625 C51.1533203,9.18945312 50.5927734,8.56054688 49.4169922,8.56054688 C48.2412109,8.56054688 47.4824219,9.34667969 47.4824219,10.6386719 L47.4824219,15 L46.3066406,15 Z M60.5732422,9.88671875 L59.3837891,9.88671875 C59.1923828,9.15527344 58.5429688,8.56054688 57.4833984,8.56054688 C56.1572266,8.56054688 55.3232422,9.62011719 55.3232422,11.2880859 C55.3232422,12.9902344 56.1708984,14.0703125 57.4833984,14.0703125 C58.4746094,14.0703125 59.1650391,13.6123047 59.3837891,12.7783203 L60.5732422,12.7783203 C60.3613281,14.1318359 59.2607422,15.1298828 57.4902344,15.1298828 C55.4257812,15.1298828 54.1064453,13.6328125 54.1064453,11.2880859 C54.1064453,8.99121094 55.4189453,7.50097656 57.4833984,7.50097656 C59.2744141,7.50097656 60.3681641,8.57421875 60.5732422,9.88671875 Z M62.3779297,15 L62.3779297,4.70507812 L63.5537109,4.70507812 L63.5537109,8.79296875 L63.6630859,8.79296875 C64.0322266,7.97949219 64.8046875,7.50097656 65.9326172,7.50097656 C67.4912109,7.50097656 68.4755859,8.49902344 68.4755859,10.2285156 L68.4755859,15 L67.2998047,15 L67.2998047,10.515625 C67.2998047,9.20996094 66.7119141,8.56054688 65.5976562,8.56054688 C64.2783203,8.56054688 63.5537109,9.39453125 63.5537109,10.6386719 L63.5537109,15 L62.3779297,15 Z M70.6220703,15 L70.6220703,7.63085938 L71.7431641,7.63085938 L71.7431641,8.79296875 L71.8525391,8.79296875 C72.1875,7.97265625 72.9257812,7.50097656 73.9101562,7.50097656 C74.9082031,7.50097656 75.6054688,8.02734375 75.9472656,8.79296875 L76.0566406,8.79296875 C76.453125,8.01367188 77.2939453,7.50097656 78.3125,7.50097656 C79.8164062,7.50097656 80.6572266,8.36230469 80.6572266,9.90722656 L80.6572266,15 L79.4814453,15 L79.4814453,10.1806641 C79.4814453,9.09375 78.96875,8.56054688 77.9296875,8.56054688 C76.9042969,8.56054688 76.2207031,9.32617188 76.2207031,10.2626953 L76.2207031,15 L75.0449219,15 L75.0449219,9.99609375 C75.0449219,9.12109375 74.4365234,8.56054688 73.5068359,8.56054688 C72.5429688,8.56054688 71.7978516,9.39453125 71.7978516,10.4335938 L71.7978516,15 L70.6220703,15 Z M85.0732422,14.0976562 C86.2832031,14.0976562 87.1787109,13.3046875 87.1787109,12.2519531 L87.1787109,11.5751953 L85.1962891,11.7050781 C84.0751953,11.7802734 83.5830078,12.1699219 83.5830078,12.9082031 C83.5830078,13.6601562 84.21875,14.0976562 85.0732422,14.0976562 Z M84.8544922,15.1298828 C83.4257812,15.1298828 82.3662109,14.2822266 82.3662109,12.9355469 C82.3662109,11.6162109 83.3369141,10.8574219 85.0527344,10.7548828 L87.1787109,10.625 L87.1787109,9.95507812 C87.1787109,9.04589844 86.6113281,8.546875 85.5107422,8.546875 C84.6289062,8.546875 84.0136719,8.88183594 83.8496094,9.46289062 L82.6601562,9.46289062 C82.8173828,8.28027344 83.9794922,7.50097656 85.5517578,7.50097656 C87.3496094,7.50097656 88.3544922,8.42382812 88.3544922,9.95507812 L88.3544922,15 L87.2333984,15 L87.2333984,13.9130859 L87.1240234,13.9130859 C86.6455078,14.6992188 85.8388672,15.1298828 84.8544922,15.1298828 Z M90.5283203,15 L90.5283203,7.63085938 L91.6494141,7.63085938 L91.6494141,8.72460938 L91.7587891,8.72460938 C91.9775391,8.00683594 92.8251953,7.50097656 93.8027344,7.50097656 C93.9941406,7.50097656 94.2402344,7.51464844 94.390625,7.53515625 L94.390625,8.7109375 C94.2949219,8.68359375 93.8710938,8.64257812 93.6386719,8.64257812 C92.5175781,8.64257812 91.7041016,9.39453125 91.7041016,10.4335938 L91.7041016,15 L90.5283203,15 Z M97.2138672,10.8505859 L100.413086,7.63085938 L101.855469,7.63085938 L98.6835938,10.7890625 L102.067383,15 L100.570312,15 L97.8085938,11.5478516 L97.1044922,12.2041016 L97.1044922,15 L95.9287109,15 L95.9287109,4.70507812 L97.1044922,4.70507812 L97.1044922,10.8505859 L97.2138672,10.8505859 Z"/>
        <rect width="20" height="20" fill="#57D2F7" rx="4"/>
      </g>
    </g>
    <path fill="#76767A" fill-rule="nonzero" d="M90.2875977,179.232422 C88.065918,179.232422 86.7875977,177.345703 86.7875977,174.064453 C86.7875977,170.810547 88.0795898,168.90332 90.2875977,168.90332 C92.4819336,168.90332 93.7739258,170.817383 93.7739258,174.084961 C93.7739258,177.359375 92.5024414,179.232422 90.2875977,179.232422 Z M90.2875977,178.15918 C91.7436523,178.15918 92.5366211,176.709961 92.5366211,174.064453 C92.5366211,171.446289 91.7299805,169.983398 90.2875977,169.983398 C88.8452148,169.983398 88.0249023,171.459961 88.0249023,174.064453 C88.0249023,176.703125 88.831543,178.15918 90.2875977,178.15918 Z M99.1606445,179.232422 C97.0688477,179.232422 95.605957,178.049805 95.605957,176.361328 C95.605957,175.076172 96.4194336,174.078125 97.6567383,173.845703 L97.6567383,173.736328 C96.6518555,173.462891 96.0092773,172.608398 96.0092773,171.535156 C96.0092773,169.99707 97.3149414,168.90332 99.1606445,168.90332 C101.006348,168.90332 102.312012,169.99707 102.312012,171.535156 C102.312012,172.615234 101.683105,173.456055 100.664551,173.736328 L100.664551,173.845703 C101.901855,174.078125 102.715332,175.076172 102.715332,176.361328 C102.715332,178.049805 101.252441,179.232422 99.1606445,179.232422 Z M99.1606445,178.179688 C100.527832,178.179688 101.471191,177.400391 101.471191,176.272461 C101.471191,175.144531 100.527832,174.365234 99.1606445,174.365234 C97.793457,174.365234 96.8500977,175.144531 96.8500977,176.272461 C96.8500977,177.400391 97.793457,178.179688 99.1606445,178.179688 Z M99.1606445,173.326172 C100.322754,173.326172 101.102051,172.65625 101.102051,171.651367 C101.102051,170.632812 100.32959,169.956055 99.1606445,169.956055 C97.9916992,169.956055 97.2192383,170.632812 97.2192383,171.651367 C97.2192383,172.65625 97.9985352,173.326172 99.1606445,173.326172 Z M104.67041,181.098633 L103.631348,181.098633 L107.254395,168.705078 L108.293457,168.705078 L104.67041,181.098633 Z M111.752441,179 L111.752441,170.50293 L111.643066,170.50293 L109.134277,172.321289 L109.134277,171.022461 L111.759277,169.135742 L112.98291,169.135742 L112.98291,179 L111.752441,179 Z M119.408691,179.225586 C117.925293,179.225586 116.790527,178.432617 116.175293,176.983398 C115.854004,176.231445 115.696777,175.322266 115.696777,174.235352 C115.696777,170.844727 117.077637,168.90332 119.490723,168.90332 C121.165527,168.90332 122.409668,169.894531 122.724121,171.480469 L121.459473,171.480469 C121.192871,170.557617 120.447754,169.99707 119.477051,169.99707 C117.870605,169.99707 116.961426,171.418945 116.893066,174.043945 L117.002441,174.043945 C117.487793,173.086914 118.45166,172.526367 119.627441,172.526367 C121.507324,172.526367 122.867676,173.914062 122.867676,175.828125 C122.867676,177.810547 121.432129,179.225586 119.408691,179.225586 Z M119.39502,178.145508 C120.659668,178.145508 121.623535,177.161133 121.623535,175.869141 C121.623535,174.522461 120.714355,173.592773 119.408691,173.592773 C118.103027,173.592773 117.166504,174.522461 117.166504,175.828125 C117.166504,177.147461 118.130371,178.145508 119.39502,178.145508 Z M124.781738,181.098633 L123.742676,181.098633 L127.365723,168.705078 L128.404785,168.705078 L124.781738,181.098633 Z M129.443848,171.911133 C129.443848,170.161133 130.77002,168.90332 132.602051,168.90332 C134.372559,168.90332 135.726074,170.106445 135.726074,171.671875 C135.726074,172.697266 135.26123,173.49707 133.641113,175.233398 L131.269043,177.783203 L131.269043,177.892578 L135.890137,177.892578 L135.890137,179 L129.505371,179 L129.505371,178.152344 L132.916504,174.426758 C134.187988,173.045898 134.495605,172.512695 134.495605,171.719727 C134.495605,170.735352 133.654785,169.976562 132.567871,169.976562 C131.412598,169.976562 130.633301,170.749023 130.633301,171.911133 L130.633301,171.917969 L129.443848,171.917969 L129.443848,171.911133 Z M141.276855,179.232422 C139.055176,179.232422 137.776855,177.345703 137.776855,174.064453 C137.776855,170.810547 139.068848,168.90332 141.276855,168.90332 C143.471191,168.90332 144.763184,170.817383 144.763184,174.084961 C144.763184,177.359375 143.491699,179.232422 141.276855,179.232422 Z M141.276855,178.15918 C142.73291,178.15918 143.525879,176.709961 143.525879,174.064453 C143.525879,171.446289 142.719238,169.983398 141.276855,169.983398 C139.834473,169.983398 139.01416,171.459961 139.01416,174.064453 C139.01416,176.703125 139.820801,178.15918 141.276855,178.15918 Z M149.138184,179 L149.138184,170.50293 L149.028809,170.50293 L146.52002,172.321289 L146.52002,171.022461 L149.14502,169.135742 L150.368652,169.135742 L150.368652,179 L149.138184,179 Z M156.459473,179.225586 C154.784668,179.225586 153.540527,178.234375 153.226074,176.648438 L154.490723,176.648438 C154.757324,177.571289 155.502441,178.131836 156.473145,178.131836 C158.07959,178.131836 158.98877,176.709961 159.057129,174.084961 L158.947754,174.084961 C158.462402,175.041992 157.498535,175.602539 156.322754,175.602539 C154.442871,175.602539 153.08252,174.214844 153.08252,172.300781 C153.08252,170.318359 154.518066,168.90332 156.541504,168.90332 C158.018066,168.90332 159.159668,169.689453 159.774902,171.145508 C160.096191,171.897461 160.253418,172.806641 160.253418,173.893555 C160.253418,177.28418 158.872559,179.225586 156.459473,179.225586 Z M156.541504,174.536133 C157.847168,174.536133 158.783691,173.606445 158.783691,172.300781 C158.783691,170.981445 157.819824,169.983398 156.555176,169.983398 C155.290527,169.983398 154.32666,170.967773 154.32666,172.259766 C154.32666,173.606445 155.23584,174.536133 156.541504,174.536133 Z"/>
    <path fill="#545459" fill-rule="nonzero" d="M19.5976562 167.232422C17.3759766 167.232422 16.0976562 165.345703 16.0976562 162.064453 16.0976562 158.810547 17.3896484 156.90332 19.5976562 156.90332 21.7919922 156.90332 23.0839844 158.817383 23.0839844 162.084961 23.0839844 165.359375 21.8125 167.232422 19.5976562 167.232422zM19.5976562 166.15918C21.0537109 166.15918 21.8466797 164.709961 21.8466797 162.064453 21.8466797 159.446289 21.0400391 157.983398 19.5976562 157.983398 18.1552734 157.983398 17.3349609 159.459961 17.3349609 162.064453 17.3349609 164.703125 18.1416016 166.15918 19.5976562 166.15918zM7.921875 119.911133C7.921875 118.161133 9.24804688 116.90332 11.0800781 116.90332 12.8505859 116.90332 14.2041016 118.106445 14.2041016 119.671875 14.2041016 120.697266 13.7392578 121.49707 12.1191406 123.233398L9.74707031 125.783203 9.74707031 125.892578 14.3681641 125.892578 14.3681641 127 7.98339844 127 7.98339844 126.152344 11.3945312 122.426758C12.6660156 121.045898 12.9736328 120.512695 12.9736328 119.719727 12.9736328 118.735352 12.1328125 117.976562 11.0458984 117.976562 9.890625 117.976562 9.11132812 118.749023 9.11132812 119.911133L9.11132812 119.917969 7.921875 119.917969 7.921875 119.911133zM19.6933594 127.232422C17.8271484 127.232422 16.4873047 126.077148 16.3779297 124.375L17.5878906 124.375C17.6972656 125.441406 18.5449219 126.152344 19.7070312 126.152344 21.0263672 126.152344 21.9082031 125.25 21.9082031 123.896484 21.9082031 122.542969 21.0195312 121.620117 19.7275391 121.620117 18.8320312 121.620117 18.09375 122.023438 17.6904297 122.727539L16.5351562 122.727539 17.0751953 117.135742 22.578125 117.135742 22.578125 118.236328 18.0390625 118.236328 17.7587891 121.401367 17.8681641 121.401367C18.3466797 120.84082 19.0439453 120.560547 19.953125 120.560547 21.8261719 120.560547 23.1386719 121.920898 23.1386719 123.862305 23.1386719 125.865234 21.7373047 127.232422 19.6933594 127.232422zM10.875 87.2324219C9.00878906 87.2324219 7.66894531 86.0771484 7.55957031 84.375L8.76953125 84.375C8.87890625 85.4414062 9.7265625 86.1523438 10.8886719 86.1523438 12.2080078 86.1523438 13.0898438 85.25 13.0898438 83.8964844 13.0898438 82.5429688 12.2011719 81.6201172 10.9091797 81.6201172 10.0136719 81.6201172 9.27539062 82.0234375 8.87207031 82.7275391L7.71679688 82.7275391 8.25683594 77.1357422 13.7597656 77.1357422 13.7597656 78.2363281 9.22070312 78.2363281 8.94042969 81.4013672 9.04980469 81.4013672C9.52832031 80.8408203 10.2255859 80.5605469 11.1347656 80.5605469 13.0078125 80.5605469 14.3203125 81.9208984 14.3203125 83.8623047 14.3203125 85.8652344 12.9189453 87.2324219 10.875 87.2324219zM19.5976562 87.2324219C17.3759766 87.2324219 16.0976562 85.3457031 16.0976562 82.0644531 16.0976562 78.8105469 17.3896484 76.9033203 19.5976562 76.9033203 21.7919922 76.9033203 23.0839844 78.8173828 23.0839844 82.0849609 23.0839844 85.359375 21.8125 87.2324219 19.5976562 87.2324219zM19.5976562 86.1591797C21.0537109 86.1591797 21.8466797 84.7099609 21.8466797 82.0644531 21.8466797 79.4462891 21.0400391 77.9833984 19.5976562 77.9833984 18.1552734 77.9833984 17.3349609 79.4599609 17.3349609 82.0644531 17.3349609 84.703125 18.1416016 86.1591797 19.5976562 86.1591797zM9.00878906 47L13.4384766 38.3320312 13.4384766 38.2363281 8.16113281 38.2363281 8.16113281 37.1357422 14.6894531 37.1357422 14.6894531 38.2773438 10.3007812 47 9.00878906 47zM19.6933594 47.2324219C17.8271484 47.2324219 16.4873047 46.0771484 16.3779297 44.375L17.5878906 44.375C17.6972656 45.4414062 18.5449219 46.1523438 19.7070312 46.1523438 21.0263672 46.1523438 21.9082031 45.25 21.9082031 43.8964844 21.9082031 42.5429688 21.0195312 41.6201172 19.7275391 41.6201172 18.8320312 41.6201172 18.09375 42.0234375 17.6904297 42.7275391L16.5351562 42.7275391 17.0751953 37.1357422 22.578125 37.1357422 22.578125 38.2363281 18.0390625 38.2363281 17.7587891 41.4013672 17.8681641 41.4013672C18.3466797 40.8408203 19.0439453 40.5605469 19.953125 40.5605469 21.8261719 40.5605469 23.1386719 41.9208984 23.1386719 43.8623047 23.1386719 45.8652344 21.7373047 47.2324219 19.6933594 47.2324219zM3.29394531 11L3.29394531 2.50292969 3.18457031 2.50292969.67578125 4.32128906.67578125 3.02246094 3.30078125 1.13574219 4.52441406 1.13574219 4.52441406 11 3.29394531 11zM10.7792969 11.2324219C8.55761719 11.2324219 7.27929688 9.34570312 7.27929688 6.06445312 7.27929688 2.81054688 8.57128906.903320312 10.7792969.903320312 12.9736328.903320312 14.265625 2.81738281 14.265625 6.08496094 14.265625 9.359375 12.9941406 11.2324219 10.7792969 11.2324219zM10.7792969 10.1591797C12.2353516 10.1591797 13.0283203 8.70996094 13.0283203 6.06445312 13.0283203 3.44628906 12.2216797 1.98339844 10.7792969 1.98339844 9.33691406 1.98339844 8.51660156 3.45996094 8.51660156 6.06445312 8.51660156 8.703125 9.32324219 10.1591797 10.7792969 10.1591797zM19.5976562 11.2324219C17.3759766 11.2324219 16.0976562 9.34570312 16.0976562 6.06445312 16.0976562 2.81054688 17.3896484.903320312 19.5976562.903320312 21.7919922.903320312 23.0839844 2.81738281 23.0839844 6.08496094 23.0839844 9.359375 21.8125 11.2324219 19.5976562 11.2324219zM19.5976562 10.1591797C21.0537109 10.1591797 21.8466797 8.70996094 21.8466797 6.06445312 21.8466797 3.44628906 21.0400391 1.98339844 19.5976562 1.98339844 18.1552734 1.98339844 17.3349609 3.45996094 17.3349609 6.06445312 17.3349609 8.703125 18.1416016 10.1591797 19.5976562 10.1591797z"/>
    <path fill="#76767A" fill-rule="nonzero" d="M271.152832,179.232422 C268.931152,179.232422 267.652832,177.345703 267.652832,174.064453 C267.652832,170.810547 268.944824,168.90332 271.152832,168.90332 C273.347168,168.90332 274.63916,170.817383 274.63916,174.084961 C274.63916,177.359375 273.367676,179.232422 271.152832,179.232422 Z M271.152832,178.15918 C272.608887,178.15918 273.401855,176.709961 273.401855,174.064453 C273.401855,171.446289 272.595215,169.983398 271.152832,169.983398 C269.710449,169.983398 268.890137,171.459961 268.890137,174.064453 C268.890137,176.703125 269.696777,178.15918 271.152832,178.15918 Z M279.807129,179.225586 C278.132324,179.225586 276.888184,178.234375 276.57373,176.648438 L277.838379,176.648438 C278.10498,177.571289 278.850098,178.131836 279.820801,178.131836 C281.427246,178.131836 282.336426,176.709961 282.404785,174.084961 L282.29541,174.084961 C281.810059,175.041992 280.846191,175.602539 279.67041,175.602539 C277.790527,175.602539 276.430176,174.214844 276.430176,172.300781 C276.430176,170.318359 277.865723,168.90332 279.88916,168.90332 C281.365723,168.90332 282.507324,169.689453 283.122559,171.145508 C283.443848,171.897461 283.601074,172.806641 283.601074,173.893555 C283.601074,177.28418 282.220215,179.225586 279.807129,179.225586 Z M279.88916,174.536133 C281.194824,174.536133 282.131348,173.606445 282.131348,172.300781 C282.131348,170.981445 281.16748,169.983398 279.902832,169.983398 C278.638184,169.983398 277.674316,170.967773 277.674316,172.259766 C277.674316,173.606445 278.583496,174.536133 279.88916,174.536133 Z M285.515137,181.098633 L284.476074,181.098633 L288.099121,168.705078 L289.138184,168.705078 L285.515137,181.098633 Z M293.554199,179.232422 C291.33252,179.232422 290.054199,177.345703 290.054199,174.064453 C290.054199,170.810547 291.346191,168.90332 293.554199,168.90332 C295.748535,168.90332 297.040527,170.817383 297.040527,174.084961 C297.040527,177.359375 295.769043,179.232422 293.554199,179.232422 Z M293.554199,178.15918 C295.010254,178.15918 295.803223,176.709961 295.803223,174.064453 C295.803223,171.446289 294.996582,169.983398 293.554199,169.983398 C292.111816,169.983398 291.291504,171.459961 291.291504,174.064453 C291.291504,176.703125 292.098145,178.15918 293.554199,178.15918 Z M302.543457,179.225586 C301.060059,179.225586 299.925293,178.432617 299.310059,176.983398 C298.98877,176.231445 298.831543,175.322266 298.831543,174.235352 C298.831543,170.844727 300.212402,168.90332 302.625488,168.90332 C304.300293,168.90332 305.544434,169.894531 305.858887,171.480469 L304.594238,171.480469 C304.327637,170.557617 303.58252,169.99707 302.611816,169.99707 C301.005371,169.99707 300.096191,171.418945 300.027832,174.043945 L300.137207,174.043945 C300.622559,173.086914 301.586426,172.526367 302.762207,172.526367 C304.64209,172.526367 306.002441,173.914062 306.002441,175.828125 C306.002441,177.810547 304.566895,179.225586 302.543457,179.225586 Z M302.529785,178.145508 C303.794434,178.145508 304.758301,177.161133 304.758301,175.869141 C304.758301,174.522461 303.849121,173.592773 302.543457,173.592773 C301.237793,173.592773 300.30127,174.522461 300.30127,175.828125 C300.30127,177.147461 301.265137,178.145508 302.529785,178.145508 Z M307.916504,181.098633 L306.877441,181.098633 L310.500488,168.705078 L311.539551,168.705078 L307.916504,181.098633 Z M312.578613,171.911133 C312.578613,170.161133 313.904785,168.90332 315.736816,168.90332 C317.507324,168.90332 318.86084,170.106445 318.86084,171.671875 C318.86084,172.697266 318.395996,173.49707 316.775879,175.233398 L314.403809,177.783203 L314.403809,177.892578 L319.024902,177.892578 L319.024902,179 L312.640137,179 L312.640137,178.152344 L316.05127,174.426758 C317.322754,173.045898 317.630371,172.512695 317.630371,171.719727 C317.630371,170.735352 316.789551,169.976562 315.702637,169.976562 C314.547363,169.976562 313.768066,170.749023 313.768066,171.911133 L313.768066,171.917969 L312.578613,171.917969 L312.578613,171.911133 Z M324.411621,179.232422 C322.189941,179.232422 320.911621,177.345703 320.911621,174.064453 C320.911621,170.810547 322.203613,168.90332 324.411621,168.90332 C326.605957,168.90332 327.897949,170.817383 327.897949,174.084961 C327.897949,177.359375 326.626465,179.232422 324.411621,179.232422 Z M324.411621,178.15918 C325.867676,178.15918 326.660645,176.709961 326.660645,174.064453 C326.660645,171.446289 325.854004,169.983398 324.411621,169.983398 C322.969238,169.983398 322.148926,171.459961 322.148926,174.064453 C322.148926,176.703125 322.955566,178.15918 324.411621,178.15918 Z M332.272949,179 L332.272949,170.50293 L332.163574,170.50293 L329.654785,172.321289 L329.654785,171.022461 L332.279785,169.135742 L333.503418,169.135742 L333.503418,179 L332.272949,179 Z M339.594238,179.225586 C337.919434,179.225586 336.675293,178.234375 336.36084,176.648438 L337.625488,176.648438 C337.89209,177.571289 338.637207,178.131836 339.60791,178.131836 C341.214355,178.131836 342.123535,176.709961 342.191895,174.084961 L342.08252,174.084961 C341.597168,175.041992 340.633301,175.602539 339.45752,175.602539 C337.577637,175.602539 336.217285,174.214844 336.217285,172.300781 C336.217285,170.318359 337.652832,168.90332 339.67627,168.90332 C341.152832,168.90332 342.294434,169.689453 342.909668,171.145508 C343.230957,171.897461 343.388184,172.806641 343.388184,173.893555 C343.388184,177.28418 342.007324,179.225586 339.594238,179.225586 Z M339.67627,174.536133 C340.981934,174.536133 341.918457,173.606445 341.918457,172.300781 C341.918457,170.981445 340.95459,169.983398 339.689941,169.983398 C338.425293,169.983398 337.461426,170.967773 337.461426,172.259766 C337.461426,173.606445 338.370605,174.536133 339.67627,174.536133 Z"/>
    <path stroke="#545459" stroke-linecap="square" d="M29.5,3.13574219 L29.5,163.135742"/>
    <path stroke="#D7D7DB" stroke-linecap="square" d="M29.5 163L404.899047 163M29.5 122L404.899047 122M29.5 82L404.899047 82M29.5 42L404.899047 42M29.5 3L404.899047 3"/>
    <path fill="#75A8FF" d="M97,136 L115,136 C116.656854,136 118,137.343146 118,139 L118,162 L94,162 L94,139 C94,137.343146 95.3431458,136 97,136 Z"/>
    <path fill="#57D2F7" d="M126 121L144 121C145.656854 121 147 122.343146 147 124L147 163 123 163 123 124C123 122.343146 124.343146 121 126 121zM316 121L334 121C335.656854 121 337 122.343146 337 124L337 163 313 163 313 124C313 122.343146 314.343146 121 316 121z"/>
    <path fill="#75A8FF" d="M287,121 L305,121 C306.656854,121 308,122.343146 308,124 L308,163 L284,163 L284,124 C284,122.343146 285.343146,121 287,121 Z"/>
  </g>
</svg>
