<svg xmlns="http://www.w3.org/2000/svg" width="247" height="170" viewBox="0 0 247 170">
  <g fill="none" fill-rule="evenodd" transform="translate(5 5)">
    <g transform="translate(185 65)">
      <g transform="translate(10.5)">
        <path fill="#3FD471" d="M10.80373,4.70370054 L6.17962545,0.252999913 C6.0044746,0.0843333044 5.78913234,0 5.53333712,0 C5.27292119,0 5.05975851,0.0843333044 4.89402343,0.252999913 L0.269918884,4.70370054 C0.0899729613,4.87689849 -6.19473198e-16,5.08433325 -6.19473198e-16,5.32592089 C-6.19473198e-16,5.56289328 0.0900601444,5.76797845 0.269918884,5.9411764 L0.802607637,6.45388933 C0.973137785,6.62700336 1.18621329,6.71377017 1.44192132,6.71377017 C1.69762936,6.71377017 1.91070486,6.62700336 2.08123501,6.45388933 L4.16953185,4.45070063 L4.16953185,9.26374077 C4.16953185,9.50062924 4.25828425,9.69329518 4.43587623,9.84148684 C4.61346821,9.98959458 4.82776427,10.0636065 5.07867724,10.0636065 L5.98790981,10.0636065 C6.23890996,10.0636065 6.45311885,9.98959458 6.63071082,9.84148684 C6.8083028,9.69337909 6.89714238,9.50062924 6.89714238,9.26374077 L6.89714238,4.45070063 L8.98543923,6.45388933 C9.15588219,6.62700336 9.36895769,6.71377017 9.6248401,6.71377017 C9.87566588,6.71377017 10.0912697,6.62700336 10.2711284,6.45388933 L10.80373,5.9411764 C10.978968,5.7633632 11.0666742,5.55836194 11.0666742,5.32592089 C11.0666742,5.08886459 10.978968,4.88151375 10.80373,4.70370054 L10.80373,4.70370054 Z" transform="translate(0 1)"/>
        <path fill="#03A83A" fill-rule="nonzero" d="M19.1171875,6.45410156 L19.1171875,5.40136719 L20.3134766,5.40136719 C21.4345703,5.40136719 22.2275391,4.67675781 22.2275391,3.65136719 C22.2275391,2.64648438 21.46875,1.9765625 20.3339844,1.9765625 C19.1992188,1.9765625 18.4541016,2.60546875 18.3515625,3.66503906 L17.1552734,3.66503906 C17.2783203,1.95605469 18.5019531,0.903320312 20.3818359,0.903320312 C22.1044922,0.903320312 23.4785156,2.05175781 23.4785156,3.48730469 C23.4785156,4.66308594 22.8291016,5.52441406 21.7490234,5.78417969 L21.7490234,5.89355469 C23.0888672,6.06445312 23.9023438,6.99414062 23.9023438,8.34082031 C23.9023438,9.96777344 22.3779297,11.2324219 20.4296875,11.2324219 C18.4267578,11.2324219 17.0458984,10.1181641 16.9570312,8.4296875 L18.1464844,8.4296875 C18.2558594,9.48242188 19.1445312,10.1591797 20.4160156,10.1591797 C21.7148438,10.1591797 22.6376953,9.38671875 22.6376953,8.30664062 C22.6376953,7.16503906 21.7695312,6.45410156 20.3681641,6.45410156 L19.1171875,6.45410156 Z M29.5283203,3.33691406 C29.5283203,4.73144531 28.6601562,5.71582031 27.4296875,5.71582031 C26.1992188,5.71582031 25.3242188,4.73144531 25.3242188,3.33691406 C25.3242188,1.94921875 26.1992188,0.96484375 27.4296875,0.96484375 C28.6601562,0.96484375 29.5283203,1.94238281 29.5283203,3.33691406 Z M27.4296875,4.84082031 C28.03125,4.84082031 28.4345703,4.23925781 28.4345703,3.33691406 C28.4345703,2.4140625 28.0449219,1.83984375 27.4296875,1.83984375 C26.8144531,1.83984375 26.4179688,2.42773438 26.4179688,3.33691406 C26.4179688,4.24609375 26.8212891,4.84082031 27.4296875,4.84082031 Z M27.3203125,11 L26.0625,11 L29.8291016,5.859375 L33.2880859,1.13574219 L34.5322266,1.13574219 L30.7041016,6.37207031 L27.3203125,11 Z M35.2363281,8.79199219 C35.2363281,10.1865234 34.3681641,11.1708984 33.1376953,11.1708984 C31.9072266,11.1708984 31.0322266,10.1865234 31.0322266,8.79199219 C31.0322266,7.40429688 31.9072266,6.41992188 33.1376953,6.41992188 C34.3681641,6.41992188 35.2363281,7.39746094 35.2363281,8.79199219 Z M33.1376953,10.2958984 C33.7392578,10.2958984 34.1425781,9.69433594 34.1425781,8.79199219 C34.1425781,7.86914062 33.7529297,7.29492188 33.1376953,7.29492188 C32.5224609,7.29492188 32.1259766,7.8828125 32.1259766,8.79199219 C32.1259766,9.70117188 32.5292969,10.2958984 33.1376953,10.2958984 Z"/>
      </g>
      <path fill="#76767A" fill-rule="nonzero" d="M5.61328125,29.0507812 L5.61328125,30 L0.48046875,30 L0.48046875,21.5449219 L1.53515625,21.5449219 L1.53515625,29.0507812 L5.61328125,29.0507812 Z M9.11132812,29.2265625 C10.1484375,29.2265625 10.9160156,28.546875 10.9160156,27.6445312 L10.9160156,27.0644531 L9.21679688,27.1757812 C8.25585938,27.2402344 7.83398438,27.5742188 7.83398438,28.2070312 C7.83398438,28.8515625 8.37890625,29.2265625 9.11132812,29.2265625 Z M8.92382812,30.1113281 C7.69921875,30.1113281 6.79101562,29.3847656 6.79101562,28.2304688 C6.79101562,27.0996094 7.62304688,26.4492188 9.09375,26.3613281 L10.9160156,26.25 L10.9160156,25.6757812 C10.9160156,24.8964844 10.4296875,24.46875 9.48632812,24.46875 C8.73046875,24.46875 8.203125,24.7558594 8.0625,25.2539062 L7.04296875,25.2539062 C7.17773438,24.2402344 8.17382812,23.5722656 9.52148438,23.5722656 C11.0625,23.5722656 11.9238281,24.3632812 11.9238281,25.6757812 L11.9238281,30 L10.9628906,30 L10.9628906,29.0683594 L10.8691406,29.0683594 C10.4589844,29.7421875 9.76757812,30.1113281 8.92382812,30.1113281 Z M13.640625,25.4121094 C13.640625,24.3632812 14.6542969,23.5722656 15.9960938,23.5722656 C17.3203125,23.5722656 18.2402344,24.2285156 18.375,25.265625 L17.3789062,25.265625 C17.2441406,24.7617188 16.7519531,24.4277344 15.9902344,24.4277344 C15.2402344,24.4277344 14.6542969,24.8085938 14.6542969,25.3710938 C14.6542969,25.8046875 15.0058594,26.0742188 15.75,26.2558594 L16.7226562,26.4902344 C17.9121094,26.7773438 18.4863281,27.2929688 18.4863281,28.2011719 C18.4863281,29.3320312 17.390625,30.1113281 15.9550781,30.1113281 C14.5488281,30.1113281 13.5820312,29.4375 13.4707031,28.3886719 L14.5078125,28.3886719 C14.6777344,28.921875 15.1816406,29.2617188 15.9902344,29.2617188 C16.8398438,29.2617188 17.4492188,28.8574219 17.4492188,28.2773438 C17.4492188,27.84375 17.1210938,27.5507812 16.4472656,27.3867188 L15.3632812,27.1230469 C14.1796875,26.8359375 13.640625,26.3261719 13.640625,25.4121094 Z M20.4316406,22.0488281 L21.4394531,22.0488281 L21.4394531,23.6835938 L22.8457031,23.6835938 L22.8457031,24.5273438 L21.4394531,24.5273438 L21.4394531,28.1015625 C21.4394531,28.8457031 21.7207031,29.1621094 22.3769531,29.1621094 C22.5585938,29.1621094 22.6582031,29.15625 22.8457031,29.1386719 L22.8457031,29.9882812 C22.6464844,30.0234375 22.453125,30.046875 22.2539062,30.046875 C20.953125,30.046875 20.4316406,29.5664062 20.4316406,28.359375 L20.4316406,24.5273438 L19.4121094,24.5273438 L19.4121094,23.6835938 L20.4316406,23.6835938 L20.4316406,22.0488281 Z M27.8847656,21.5449219 L31.078125,21.5449219 C32.6777344,21.5449219 33.7851562,22.6699219 33.7851562,24.28125 C33.7851562,25.8632812 32.6542969,26.9824219 31.0664062,26.9824219 L28.9394531,26.9824219 L28.9394531,30 L27.8847656,30 L27.8847656,21.5449219 Z M28.9394531,22.4824219 L28.9394531,26.0449219 L30.8027344,26.0449219 C32.0039062,26.0449219 32.7011719,25.4003906 32.7011719,24.28125 C32.7011719,23.1210938 32.0273438,22.4824219 30.8027344,22.4824219 L28.9394531,22.4824219 Z M40.4882812,23.6835938 L40.4882812,30 L39.5273438,30 L39.5273438,29.0097656 L39.4335938,29.0097656 C39.1171875,29.7128906 38.4433594,30.1113281 37.4765625,30.1113281 C36.0585938,30.1113281 35.3203125,29.2675781 35.3203125,27.7734375 L35.3203125,23.6835938 L36.328125,23.6835938 L36.328125,27.5273438 C36.328125,28.6640625 36.75,29.1914062 37.7578125,29.1914062 C38.8710938,29.1914062 39.4804688,28.5292969 39.4804688,27.421875 L39.4804688,23.6835938 L40.4882812,23.6835938 Z M42.4453125,30 L42.4453125,21.1757812 L43.453125,21.1757812 L43.453125,30 L42.4453125,30 Z M45.2636719,25.4121094 C45.2636719,24.3632812 46.2773438,23.5722656 47.6191406,23.5722656 C48.9433594,23.5722656 49.8632812,24.2285156 49.9980469,25.265625 L49.0019531,25.265625 C48.8671875,24.7617188 48.375,24.4277344 47.6132812,24.4277344 C46.8632812,24.4277344 46.2773438,24.8085938 46.2773438,25.3710938 C46.2773438,25.8046875 46.6289062,26.0742188 47.3730469,26.2558594 L48.3457031,26.4902344 C49.5351562,26.7773438 50.109375,27.2929688 50.109375,28.2011719 C50.109375,29.3320312 49.0136719,30.1113281 47.578125,30.1113281 C46.171875,30.1113281 45.2050781,29.4375 45.09375,28.3886719 L46.1308594,28.3886719 C46.3007812,28.921875 46.8046875,29.2617188 47.6132812,29.2617188 C48.4628906,29.2617188 49.0722656,28.8574219 49.0722656,28.2773438 C49.0722656,27.84375 48.7441406,27.5507812 48.0703125,27.3867188 L46.9863281,27.1230469 C45.8027344,26.8359375 45.2636719,26.3261719 45.2636719,25.4121094 Z M54.2109375,24.4628906 C53.203125,24.4628906 52.5,25.2011719 52.4238281,26.3203125 L55.9042969,26.3203125 C55.8808594,25.2011719 55.2128906,24.4628906 54.2109375,24.4628906 Z M55.875,28.3652344 L56.8828125,28.3652344 C56.578125,29.4492188 55.6054688,30.1113281 54.2226562,30.1113281 C52.4707031,30.1113281 51.375,28.8457031 51.375,26.8476562 C51.375,24.8613281 52.4882812,23.5722656 54.2226562,23.5722656 C55.9277344,23.5722656 56.9648438,24.7851562 56.9648438,26.7480469 L56.9648438,27.1347656 L52.4238281,27.1347656 L52.4238281,27.1816406 C52.4765625,28.4296875 53.1738281,29.2207031 54.2460938,29.2207031 C55.0605469,29.2207031 55.6113281,28.921875 55.875,28.3652344 Z"/>
    </g>
    <circle cx="80" cy="80" r="80" stroke="#EBF2FF" stroke-width="10"/>
    <path stroke="#75A8FF" stroke-width="10" d="M160,80 C160,35.81722 124.18278,0 80,0"/>
    <path fill="#212125" fill-rule="nonzero" d="M60.28125,75.046875 C60.28125,70.828125 63.515625,67.890625 68.140625,67.890625 C72.59375,67.890625 75.8125,70.609375 75.8125,74.375 C75.8125,76.796875 74.578125,78.796875 70.75,82.578125 L66.03125,87.3125 L66.03125,87.578125 L76.15625,87.578125 L76.15625,91 L60.5,91 L60.5,88.203125 L68.015625,80.515625 C71.09375,77.390625 71.859375,76.21875 71.859375,74.625 C71.859375,72.640625 70.234375,71.203125 68.015625,71.203125 C65.65625,71.203125 64.0625,72.75 64.0625,75.046875 L64.0625,75.109375 L60.28125,75.109375 L60.28125,75.046875 Z M88.765625,91.5625 C84.09375,91.5625 80.859375,88.71875 80.671875,84.75 L84.453125,84.75 C84.703125,86.828125 86.46875,88.203125 88.796875,88.203125 C91.4375,88.203125 93.234375,86.421875 93.234375,83.734375 C93.234375,81.03125 91.421875,79.203125 88.828125,79.203125 C86.96875,79.203125 85.515625,80.03125 84.6875,81.421875 L81.03125,81.421875 L82.203125,68.453125 L95.78125,68.453125 L95.78125,71.859375 L85.328125,71.859375 L84.78125,78.1875 L85.046875,78.1875 C86.046875,76.84375 87.640625,76.078125 89.8125,76.078125 C94.09375,76.078125 97.125,79.21875 97.125,83.640625 C97.125,88.34375 93.765625,91.5625 88.765625,91.5625 Z"/>
    <path fill="#9C9CA0" fill-rule="nonzero" d="M110.070312,76.1210938 C110.070312,78.2011719 108.78125,79.6367188 106.886719,79.6367188 C104.992188,79.6367188 103.683594,78.2011719 103.683594,76.1210938 C103.683594,74.0410156 104.992188,72.6152344 106.886719,72.6152344 C108.78125,72.6152344 110.070312,74.03125 110.070312,76.1210938 Z M106.886719,77.9863281 C107.628906,77.9863281 108.117188,77.2539062 108.117188,76.1113281 C108.117188,74.9492188 107.648438,74.2558594 106.886719,74.2558594 C106.125,74.2558594 105.646484,74.96875 105.646484,76.1113281 C105.646484,77.2539062 106.125,77.9863281 106.886719,77.9863281 Z M107.462891,87 L105.060547,87 L110.402344,79.6367188 L114.894531,72.9082031 L117.287109,72.9082031 L111.857422,80.3691406 L107.462891,87 Z M118.595703,83.7773438 C118.595703,85.8671875 117.306641,87.2929688 115.412109,87.2929688 C113.517578,87.2929688 112.21875,85.8671875 112.21875,83.7773438 C112.21875,81.6972656 113.517578,80.2714844 115.412109,80.2714844 C117.306641,80.2714844 118.595703,81.6972656 118.595703,83.7773438 Z M115.412109,85.6425781 C116.154297,85.6425781 116.642578,84.9199219 116.642578,83.7773438 C116.642578,82.6152344 116.173828,81.9121094 115.412109,81.9121094 C114.650391,81.9121094 114.171875,82.6347656 114.171875,83.7773438 C114.171875,84.9199219 114.650391,85.6425781 115.412109,85.6425781 Z"/>
  </g>
</svg>
